<?xml version="1.0" encoding="UTF-8" standalone="no"?>
<!DOCTYPE svg PUBLIC "-//W3C//DTD SVG 1.1//EN" "http://www.w3.org/Graphics/SVG/1.1/DTD/svg11.dtd">
<svg width="100%" height="100%" viewBox="0 0 948 180" version="1.1" xmlns="http://www.w3.org/2000/svg"
     xmlns:xlink="http://www.w3.org/1999/xlink" xml:space="preserve" xmlns:serif="http://www.serif.com/"
     style="fill-rule:evenodd;clip-rule:evenodd;stroke-linejoin:round;stroke-miterlimit:2;">
    <g transform="matrix(1,0,0,1,-66,-450)">
        <g id="Square-Background" transform="matrix(5.6014,0,0,5.145,-134.13,-1277.63)">
            <rect x="23.946" y="248.325" width="192.809" height="209.912" style="fill:none;"/>
        </g>
        <g id="Logo" transform="matrix(1,0,0,1,0,376.839)">
            <g transform="matrix(1,0,0,1,-33.6745,-166.564)">
                <path d="M187.174,353.081L187.174,378.725C186.841,386.392 184.633,393.309 180.549,399.475C176.466,405.642 171.216,410.559 164.799,414.225C158.383,417.892 151.258,419.725 143.424,419.725C135.424,419.725 128.091,417.767 121.424,413.85C114.758,409.934 109.466,404.684 105.549,398.1C101.633,391.517 99.674,384.142 99.674,375.975L99.674,283.475C99.674,275.309 101.633,267.934 105.549,261.35C109.466,254.767 114.758,249.517 121.424,245.6C128.091,241.684 135.424,239.725 143.424,239.725C151.424,239.725 158.758,241.684 165.424,245.6C172.091,249.517 177.383,254.767 181.299,261.35C185.216,267.934 187.174,275.309 187.174,283.475L187.174,339.475L136.924,339.475L136.924,378.475C136.924,380.142 137.549,381.642 138.799,382.975C140.049,384.309 141.591,384.975 143.424,384.975C145.258,384.975 146.758,384.309 147.924,382.975C149.091,381.642 149.674,380.142 149.674,378.475L149.674,363.614L187.174,353.081ZM136.924,304.475L149.674,304.475L149.674,278.475C149.674,276.642 149.091,275.142 147.924,273.975C146.758,272.809 145.258,272.225 143.424,272.225C141.591,272.225 140.049,272.809 138.799,273.975C137.549,275.142 136.924,276.642 136.924,278.475L136.924,304.475Z"
                      style="fill:rgb(38,157,255);"/>
            </g>
            <g transform="matrix(1,0,0,1,-33.6745,-166.564)">
                <path d="M199.674,417.225L199.674,242.225L229.424,242.225L229.424,250.975L231.924,250.975C232.758,247.809 235.133,245.142 239.049,242.975C242.966,240.809 247.258,239.725 251.924,239.725C256.924,239.725 261.258,240.85 264.924,243.1C268.591,245.35 271.008,247.975 272.174,250.975L274.674,250.975C276.341,248.475 278.758,245.975 281.924,243.475C285.091,240.975 290.091,239.725 296.924,239.725C305.258,239.725 311.883,242.475 316.799,247.975C321.716,253.475 324.174,261.642 324.174,272.475L324.174,417.225L287.424,417.225L287.424,278.225C287.424,277.225 287.049,276.35 286.299,275.6C285.549,274.85 284.674,274.475 283.674,274.475C282.674,274.475 281.799,274.85 281.049,275.6C280.299,276.35 279.924,277.225 279.924,278.225L279.924,417.225L243.674,417.225L243.674,278.725C243.674,276.059 242.424,274.725 239.924,274.725C237.424,274.725 236.174,276.059 236.174,278.725L236.174,417.225L199.674,417.225Z"
                      style="fill:rgb(38,157,255);fill-rule:nonzero;"/>
            </g>
            <g transform="matrix(1,0,0,1,-33.6745,-166.564)">
                <path d="M380.424,419.725C372.424,419.725 365.091,417.767 358.424,413.85C351.758,409.934 346.466,404.684 342.549,398.1C338.633,391.517 336.674,384.142 336.674,375.975L336.674,283.475C336.674,275.309 338.633,267.934 342.549,261.35C346.466,254.767 351.758,249.517 358.424,245.6C365.091,241.684 372.424,239.725 380.424,239.725C388.424,239.725 395.758,241.684 402.424,245.6C409.091,249.517 414.383,254.767 418.299,261.35C422.216,267.934 424.174,275.309 424.174,283.475L424.174,375.975C424.174,384.142 422.216,391.517 418.299,398.1C414.383,404.684 409.091,409.934 402.424,413.85C395.758,417.767 388.424,419.725 380.424,419.725ZM380.424,386.725C382.258,386.725 383.758,386.1 384.924,384.85C386.091,383.6 386.674,382.142 386.674,380.475L386.674,278.725C386.674,276.892 386.091,275.35 384.924,274.1C383.758,272.85 382.258,272.225 380.424,272.225C378.591,272.225 377.049,272.85 375.799,274.1C374.549,275.35 373.924,276.892 373.924,278.725L373.924,380.475C373.924,382.142 374.549,383.6 375.799,384.85C377.049,386.1 378.591,386.725 380.424,386.725Z"
                      style="fill:rgb(38,157,255);fill-rule:nonzero;"/>
            </g>
            <g transform="matrix(1,0,0,1,-33.6745,-166.564)">
                <path d="M455.674,417.225L455.674,274.725L431.924,274.725L431.924,242.225L516.924,242.225L516.924,274.725L493.174,274.725L493.174,417.225L455.674,417.225Z"
                      style="fill:rgb(38,157,255);fill-rule:nonzero;"/>
            </g>
            <g transform="matrix(1,0,0,0.953545,0,-355.317)">
                <path d="M536,485.791L536,635.5L498.25,635.5L498.25,496.911L536,485.791Z" style="fill:rgb(3,187,92);"/>
            </g>
            <g transform="matrix(1,0,0,0.953545,0,-355.317)">
                <path d="M498.25,486.234L498.25,451.974L536,451.974L536,475.114L498.25,486.234Z"
                      style="fill:rgb(3,187,92);"/>
            </g>
            <g transform="matrix(1,0,0,1,-33.6745,-166.564)">
                <path d="M624.674,419.725C616.674,419.725 609.341,417.767 602.674,413.85C596.008,409.934 590.716,404.684 586.799,398.1C582.883,391.517 580.924,384.142 580.924,375.975L580.924,283.475C580.924,275.309 582.883,267.934 586.799,261.35C590.716,254.767 596.008,249.517 602.674,245.6C609.341,241.684 616.674,239.725 624.674,239.725C632.841,239.725 640.216,241.684 646.799,245.6C653.383,249.517 658.633,254.767 662.549,261.35C666.466,267.934 668.424,275.309 668.424,283.475L668.424,310.975L631.424,310.975L631.424,281.225C631.424,279.392 630.758,277.85 629.424,276.6C628.091,275.35 626.508,274.725 624.674,274.725C623.008,274.725 621.508,275.35 620.174,276.6C618.841,277.85 618.174,279.392 618.174,281.225L618.174,378.475C618.174,380.142 618.841,381.642 620.174,382.975C621.508,384.309 623.008,384.975 624.674,384.975C626.508,384.975 628.091,384.309 629.424,382.975C630.758,381.642 631.424,380.142 631.424,378.475L631.424,348.475L668.424,348.475L668.424,375.975C668.424,384.142 666.466,391.517 662.549,398.1C658.633,404.684 653.383,409.934 646.799,413.85C640.216,417.767 632.841,419.725 624.674,419.725Z"
                      style="fill:rgb(38,157,255);fill-rule:nonzero;"/>
            </g>
            <g transform="matrix(1,0,0,1,-33.6745,-166.564)">
                <path d="M723.424,419.725C715.424,419.725 708.091,417.767 701.424,413.85C694.758,409.934 689.466,404.684 685.549,398.1C681.633,391.517 679.674,384.142 679.674,375.975L679.674,283.475C679.674,275.309 681.633,267.934 685.549,261.35C689.466,254.767 694.758,249.517 701.424,245.6C708.091,241.684 715.424,239.725 723.424,239.725C731.424,239.725 738.758,241.684 745.424,245.6C752.091,249.517 757.383,254.767 761.299,261.35C765.216,267.934 767.174,275.309 767.174,283.475L767.174,375.975C767.174,384.142 765.216,391.517 761.299,398.1C757.383,404.684 752.091,409.934 745.424,413.85C738.758,417.767 731.424,419.725 723.424,419.725ZM723.424,386.725C725.258,386.725 726.758,386.1 727.924,384.85C729.091,383.6 729.674,382.142 729.674,380.475L729.674,278.725C729.674,276.892 729.091,275.35 727.924,274.1C726.758,272.85 725.258,272.225 723.424,272.225C721.591,272.225 720.049,272.85 718.799,274.1C717.549,275.35 716.924,276.892 716.924,278.725L716.924,380.475C716.924,382.142 717.549,383.6 718.799,384.85C720.049,386.1 721.591,386.725 723.424,386.725Z"
                      style="fill:rgb(38,157,255);fill-rule:nonzero;"/>
            </g>
            <g transform="matrix(1,0,0,1,-33.6745,-166.564)">
                <path d="M779.924,417.225L779.924,242.225L817.174,242.225L817.174,384.975L849.924,384.975L849.924,417.225L779.924,417.225Z"
                      style="fill:rgb(38,157,255);fill-rule:nonzero;"/>
            </g>
            <g transform="matrix(1,0,0,1,-33.6745,-166.564)">
                <path d="M903.674,419.725C895.674,419.725 888.341,417.767 881.674,413.85C875.008,409.934 869.716,404.684 865.799,398.1C861.883,391.517 859.924,384.142 859.924,375.975L859.924,283.475C859.924,275.309 861.883,267.934 865.799,261.35C869.716,254.767 875.008,249.517 881.674,245.6C888.341,241.684 895.674,239.725 903.674,239.725C911.674,239.725 919.008,241.684 925.674,245.6C932.341,249.517 937.633,254.767 941.549,261.35C945.466,267.934 947.424,275.309 947.424,283.475L947.424,375.975C947.424,384.142 945.466,391.517 941.549,398.1C937.633,404.684 932.341,409.934 925.674,413.85C919.008,417.767 911.674,419.725 903.674,419.725ZM903.674,386.725C905.508,386.725 907.008,386.1 908.174,384.85C909.341,383.6 909.924,382.142 909.924,380.475L909.924,278.725C909.924,276.892 909.341,275.35 908.174,274.1C907.008,272.85 905.508,272.225 903.674,272.225C901.841,272.225 900.299,272.85 899.049,274.1C897.799,275.35 897.174,276.892 897.174,278.725L897.174,380.475C897.174,382.142 897.799,383.6 899.049,384.85C900.299,386.1 901.841,386.725 903.674,386.725Z"
                      style="fill:rgb(38,157,255);fill-rule:nonzero;"/>
            </g>
            <g transform="matrix(1,0,0,1,-33.6745,-166.564)">
                <path d="M997.424,417.225L960.174,417.225L960.174,242.225L998.424,242.225C1007.59,242.225 1015.88,244.35 1023.3,248.6C1030.72,252.85 1036.63,258.559 1041.05,265.725C1045.47,272.892 1047.67,281.059 1047.67,290.225C1047.67,300.392 1044.97,308.475 1039.55,314.475C1034.13,320.475 1027.76,324.642 1020.42,326.975L1020.42,330.725C1027.76,331.892 1033.55,335.267 1037.8,340.85C1042.05,346.434 1044.17,353.642 1044.17,362.475L1044.17,417.475L1007.17,417.475L1007.17,362.475C1007.17,360.642 1006.51,359.1 1005.17,357.85C1003.84,356.6 1002.26,355.975 1000.42,355.975L997.424,355.975L997.424,417.225ZM997.424,305.975L1002.17,305.975C1004.51,305.975 1006.47,305.184 1008.05,303.6C1009.63,302.017 1010.42,300.142 1010.42,297.975L1010.42,283.475C1010.42,281.142 1009.63,279.184 1008.05,277.6C1006.47,276.017 1004.51,275.225 1002.17,275.225L997.424,275.225L997.424,305.975Z"
                      style="fill:rgb(38,157,255);fill-rule:nonzero;"/>
            </g>
        </g>
    </g>
</svg>
