<?xml version="1.0" encoding="UTF-8" standalone="no"?>
<!DOCTYPE svg PUBLIC "-//W3C//DTD SVG 1.1//EN" "http://www.w3.org/Graphics/SVG/1.1/DTD/svg11.dtd">
<svg width="100%" height="100%" viewBox="0 0 800 800" version="1.1" xmlns="http://www.w3.org/2000/svg"
     xmlns:xlink="http://www.w3.org/1999/xlink" xml:space="preserve" xmlns:serif="http://www.serif.com/">
    <g transform="matrix(33.3333,0,0,33.3333,0,0)" fill="currentColor" stroke="none">
        <path d="M16.696,4.279L14.708,9.25L19,9.25C19.303,9.25 19.577,9.433 19.693,9.713C19.809,9.993 19.745,10.316 19.53,10.53L8.53,21.53C8.292,21.769 7.924,21.819 7.63,21.653C7.337,21.487 7.191,21.145 7.272,20.818L9.039,13.75L6,13.75C5.759,13.75 5.533,13.634 5.392,13.439C5.251,13.243 5.212,12.992 5.288,12.763L8.288,3.763C8.391,3.457 8.677,3.25 9,3.25L16,3.25C16.249,3.25 16.482,3.373 16.621,3.58C16.761,3.786 16.789,4.047 16.696,4.279ZM14.892,4.75L9.541,4.75L7.041,12.25L10,12.25C10.231,12.25 10.449,12.356 10.591,12.538C10.733,12.72 10.784,12.958 10.728,13.182L9.384,18.555L17.189,10.75L13.6,10.75C13.351,10.75 13.118,10.627 12.979,10.42C12.839,10.214 12.811,9.953 12.904,9.721L14.892,4.75Z"/>
    </g>
</svg>
