<?xml version="1.0" encoding="UTF-8" standalone="no"?>
<!DOCTYPE svg PUBLIC "-//W3C//DTD SVG 1.1//EN" "http://www.w3.org/Graphics/SVG/1.1/DTD/svg11.dtd">
<svg width="100%" height="100%" viewBox="0 0 800 800" version="1.1" xmlns="http://www.w3.org/2000/svg"
     xmlns:xlink="http://www.w3.org/1999/xlink" xml:space="preserve" xmlns:serif="http://www.serif.com/"
     style="fill-rule:evenodd;clip-rule:evenodd;stroke-linejoin:round;stroke-miterlimit:2;">
    <g transform="matrix(33.3333,0,0,33.3333,0,0)" fill="currentColor" stroke="none">
        <path d="M5.25,6C5.25,4.481 6.481,3.25 8,3.25L16,3.25C17.519,3.25 18.75,4.481 18.75,6L18.75,21C18.75,21.303 18.567,21.577 18.287,21.693C18.007,21.809 17.684,21.745 17.47,21.53L12,16.061L6.53,21.53C6.316,21.745 5.993,21.809 5.713,21.693C5.433,21.577 5.25,21.303 5.25,21L5.25,6ZM6.75,6L6.75,19.189L11.47,14.47C11.763,14.177 12.237,14.177 12.53,14.47L17.25,19.189L17.25,6C17.25,5.31 16.69,4.75 16,4.75L8,4.75C7.31,4.75 6.75,5.31 6.75,6Z"/>
    </g>
</svg>
