<?xml version="1.0" encoding="UTF-8" standalone="no"?>
<!DOCTYPE svg PUBLIC "-//W3C//DTD SVG 1.1//EN" "http://www.w3.org/Graphics/SVG/1.1/DTD/svg11.dtd">
<svg width="100%" height="100%" viewBox="0 0 800 800" version="1.1" xmlns="http://www.w3.org/2000/svg" xmlns:xlink="http://www.w3.org/1999/xlink" xml:space="preserve" xmlns:serif="http://www.serif.com/" style="fill-rule:evenodd;clip-rule:evenodd;stroke-linejoin:round;stroke-miterlimit:2;">
    <g transform="matrix(33.3333,0,0,33.3333,0,0)">
        <path d="M21.75,17C21.75,18.519 20.519,19.75 19,19.75L5,19.75C3.481,19.75 2.25,18.519 2.25,17L2.25,9C2.25,7.481 3.481,6.25 5,6.25L7.5,6.25C7.638,6.25 7.75,6.138 7.75,6C7.75,5.034 8.534,4.25 9.5,4.25L14.5,4.25C15.467,4.25 16.25,5.034 16.25,6C16.25,6.138 16.362,6.25 16.5,6.25L19,6.25C20.519,6.25 21.75,7.481 21.75,9L21.75,17ZM20.25,17L20.25,9C20.25,8.31 19.69,7.75 19,7.75L16.5,7.75C15.533,7.75 14.75,6.966 14.75,6C14.75,5.862 14.638,5.75 14.5,5.75L9.5,5.75C9.362,5.75 9.25,5.862 9.25,6C9.25,6.966 8.466,7.75 7.5,7.75L5,7.75C4.31,7.75 3.75,8.31 3.75,9L3.75,17C3.75,17.69 4.31,18.25 5,18.25L19,18.25C19.69,18.25 20.25,17.69 20.25,17ZM15.75,13C15.75,15.071 14.071,16.75 12,16.75C9.929,16.75 8.25,15.071 8.25,13C8.25,10.929 9.929,9.25 12,9.25C14.071,9.25 15.75,10.929 15.75,13ZM14.25,13C14.25,11.757 13.243,10.75 12,10.75C10.757,10.75 9.75,11.757 9.75,13C9.75,14.243 10.757,15.25 12,15.25C13.243,15.25 14.25,14.243 14.25,13Z"/>
    </g>
</svg>
