<?xml version="1.0" encoding="UTF-8" standalone="no"?>
<!DOCTYPE svg PUBLIC "-//W3C//DTD SVG 1.1//EN" "http://www.w3.org/Graphics/SVG/1.1/DTD/svg11.dtd">
<svg width="100%" height="100%" viewBox="0 0 800 800" version="1.1" xmlns="http://www.w3.org/2000/svg"
     xmlns:xlink="http://www.w3.org/1999/xlink" xml:space="preserve" xmlns:serif="http://www.serif.com/"
     style="fill-rule:evenodd;clip-rule:evenodd;stroke-linejoin:round;stroke-miterlimit:2;">
    <g transform="matrix(33.3333,0,0,33.3333,0,0)" fill="currentColor" stroke="none">
        <path d="M7.25,10.25L7.25,7C7.25,5.417 8.2,2.25 12,2.25C15.8,2.25 16.75,5.417 16.75,7L16.75,10.25L19,10.25C19.414,10.25 19.75,10.586 19.75,11L19.75,21C19.75,21.414 19.414,21.75 19,21.75L5,21.75C4.586,21.75 4.25,21.414 4.25,21L4.25,11C4.25,10.586 4.586,10.25 5,10.25L7.25,10.25ZM18.25,11.75L5.75,11.75L5.75,20.25L18.25,20.25L18.25,11.75ZM12.791,12.093C12.791,12.093 12.874,12.093 12.791,12.093C14.176,12.093 15.316,13.232 15.316,14.617C15.316,16.002 14.176,17.142 12.791,17.142C12.573,17.142 12.355,17.114 12.145,17.058L9.466,19.737C9.438,19.765 9.4,19.781 9.36,19.781L7.777,19.781C7.694,19.781 7.627,19.714 7.627,19.631L7.627,18.048C7.627,18.008 7.643,17.97 7.671,17.942L10.349,15.263C10.294,15.052 10.265,14.835 10.265,14.617C10.265,13.232 11.405,12.093 12.79,12.093L12.791,12.093ZM12.79,16.314L12.79,16.314C12.79,16.314 12.871,16.314 12.79,16.314C13.721,16.314 14.487,15.548 14.487,14.617C14.487,13.686 13.721,12.92 12.79,12.92C11.859,12.92 11.093,13.686 11.093,14.617C11.093,14.784 11.118,14.95 11.166,15.11L11.258,15.413C11.274,15.466 11.26,15.523 11.221,15.562L10.997,15.786L8.454,18.328L8.454,18.953L9.079,18.953L9.512,18.521L9.254,18.263C9.195,18.204 9.195,18.109 9.254,18.051L9.627,17.678C9.685,17.619 9.78,17.619 9.839,17.678L10.097,17.935L10.303,17.729L10.045,17.471C9.987,17.413 9.987,17.318 10.045,17.259L10.418,16.886C10.477,16.828 10.572,16.828 10.631,16.886L10.888,17.144L11.845,16.187C11.884,16.148 11.942,16.133 11.995,16.149L12.297,16.241C12.457,16.29 12.623,16.314 12.79,16.314ZM13.054,13.676C13.428,13.676 13.732,13.979 13.732,14.354C13.732,14.728 13.428,15.031 13.054,15.031C12.68,15.031 12.376,14.728 12.376,14.354C12.376,13.979 12.68,13.676 13.054,13.676ZM8.75,10.25L15.25,10.25L15.25,7C15.25,5.917 14.6,3.75 12,3.75C9.4,3.75 8.75,5.917 8.75,7L8.75,10.25Z"/>
    </g>
</svg>
