<?xml version="1.0" encoding="UTF-8" standalone="no"?>
<!DOCTYPE svg PUBLIC "-//W3C//DTD SVG 1.1//EN" "http://www.w3.org/Graphics/SVG/1.1/DTD/svg11.dtd">
<svg width="100%" height="100%" viewBox="0 0 800 800" version="1.1" xmlns="http://www.w3.org/2000/svg"
     xmlns:xlink="http://www.w3.org/1999/xlink" xml:space="preserve" xmlns:serif="http://www.serif.com/"
     style="fill-rule:evenodd;clip-rule:evenodd;stroke-linejoin:round;stroke-miterlimit:2;">
    <g transform="matrix(33.3333,0,0,33.3333,0,0)" fill="currentColor" stroke="none">
        <path d="M2.763,4.763C3.079,4.446 3.517,4.25 4,4.25L20,4.25C20.483,4.25 20.921,4.446 21.237,4.763L21.237,4.763C21.554,5.079 21.75,5.517 21.75,6L21.75,18C21.75,18.967 20.967,19.75 20,19.75L4,19.75C3.034,19.75 2.25,18.967 2.25,18L2.25,6C2.25,5.517 2.446,5.079 2.763,4.763ZM20.25,6.811L13.945,13.116C12.871,14.19 11.129,14.19 10.055,13.116L3.75,6.811L3.75,18C3.75,18.138 3.862,18.25 4,18.25L20,18.25C20.138,18.25 20.25,18.138 20.25,18L20.25,6.811ZM4.811,5.75L11.116,12.055C11.604,12.544 12.396,12.544 12.884,12.055L19.189,5.75L4.811,5.75Z"/>
    </g>
</svg>
