<?xml version="1.0" encoding="UTF-8" standalone="no"?>
<!DOCTYPE svg PUBLIC "-//W3C//DTD SVG 1.1//EN" "http://www.w3.org/Graphics/SVG/1.1/DTD/svg11.dtd">
<svg width="100%" height="100%" viewBox="0 0 800 800" version="1.1" xmlns="http://www.w3.org/2000/svg"
     xmlns:xlink="http://www.w3.org/1999/xlink" xml:space="preserve" xmlns:serif="http://www.serif.com/"
     style="fill-rule:evenodd;clip-rule:evenodd;stroke-linejoin:round;stroke-miterlimit:2;">
    <g transform="matrix(33.3333,0,0,33.3333,0,0)" fill="currentColor" stroke="none">
        <path d="M18.189,11.25L13.47,6.53C13.177,6.238 13.177,5.762 13.47,5.47C13.762,5.177 14.238,5.177 14.53,5.47L20.53,11.47C20.602,11.542 20.656,11.624 20.693,11.713C20.73,11.801 20.75,11.898 20.75,12C20.75,12.102 20.73,12.199 20.693,12.287C20.656,12.376 20.602,12.458 20.53,12.53L14.53,18.53C14.238,18.823 13.762,18.823 13.47,18.53C13.177,18.238 13.177,17.762 13.47,17.47L18.189,12.75L4,12.75C3.586,12.75 3.25,12.414 3.25,12C3.25,11.586 3.586,11.25 4,11.25L18.189,11.25Z"/>
    </g>
</svg>
