<?xml version="1.0" encoding="UTF-8" standalone="no"?>
<!DOCTYPE svg PUBLIC "-//W3C//DTD SVG 1.1//EN" "http://www.w3.org/Graphics/SVG/1.1/DTD/svg11.dtd">
<svg width="100%" height="100%" viewBox="0 0 800 800" version="1.1" xmlns="http://www.w3.org/2000/svg"
     xmlns:xlink="http://www.w3.org/1999/xlink" xml:space="preserve" xmlns:serif="http://www.serif.com/"
     style="fill-rule:evenodd;clip-rule:evenodd;stroke-linejoin:round;stroke-miterlimit:2;">
    <g transform="matrix(33.3333,0,0,33.3333,0,0)" fill="currentColor" stroke="none">
        <path d="M21.75,12C21.75,17.385 17.385,21.75 12,21.75C6.615,21.75 2.25,17.385 2.25,12C2.25,6.615 6.615,2.25 12,2.25C17.385,2.25 21.75,6.615 21.75,12ZM20.25,12C20.25,7.444 16.556,3.75 12,3.75C7.444,3.75 3.75,7.444 3.75,12C3.75,16.556 7.444,20.25 12,20.25C16.556,20.25 20.25,16.556 20.25,12ZM11.25,17.01C11.279,16.622 11.603,16.317 11.999,16.317C12.414,16.317 12.75,16.653 12.75,17.068C12.75,17.483 12.414,17.819 11.999,17.819C11.584,17.819 11.248,17.483 11.248,17.068C11.248,17.049 11.249,17.03 11.25,17.011C11.25,17.007 11.25,17.004 11.25,17C11.25,17.003 11.25,17.007 11.25,17.01ZM12.75,14.857C12.75,15.271 12.414,15.607 12,15.607C11.586,15.607 11.25,15.271 11.25,14.857C11.25,12.9 12.151,12.131 13.064,11.479C13.624,11.079 14.25,10.791 14.25,9.857C14.25,8.683 13.233,7.75 12,7.75C10.995,7.75 10.136,8.367 9.85,9.235C9.72,9.628 9.296,9.842 8.902,9.712C8.509,9.583 8.295,9.158 8.425,8.765C8.904,7.314 10.319,6.25 12,6.25C14.081,6.25 15.75,7.875 15.75,9.857C15.75,11.165 15.145,11.813 14.392,12.373C13.686,12.898 12.75,13.283 12.75,14.857Z"/>
    </g>
</svg>
