<?xml version="1.0" encoding="UTF-8" standalone="no"?>
<!DOCTYPE svg PUBLIC "-//W3C//DTD SVG 1.1//EN" "http://www.w3.org/Graphics/SVG/1.1/DTD/svg11.dtd">
<svg width="100%" height="100%" viewBox="0 0 800 800" version="1.1" xmlns="http://www.w3.org/2000/svg"
     xmlns:xlink="http://www.w3.org/1999/xlink" xml:space="preserve" xmlns:serif="http://www.serif.com/"
     style="fill-rule:evenodd;clip-rule:evenodd;stroke-linejoin:round;stroke-miterlimit:2;">
    <g transform="matrix(33.3333,0,0,33.3333,0,0)" fill="currentColor" stroke="none">
        <path d="M20.566,15.326C20.294,15.638 19.819,15.671 19.507,15.399C19.195,15.127 19.163,14.653 19.434,14.341C20.282,13.368 20.858,12.471 21.138,12C20.704,11.269 19.559,9.513 17.789,8.04C16.297,6.798 14.353,5.75 12,5.75C11.689,5.75 11.384,5.768 11.087,5.803C10.775,5.84 10.47,5.894 10.174,5.965C9.771,6.061 9.366,5.812 9.27,5.409C9.174,5.007 9.423,4.602 9.826,4.506C10.179,4.422 10.541,4.357 10.913,4.313C11.267,4.272 11.629,4.25 12,4.25C14.738,4.25 17.012,5.442 18.749,6.888C21.293,9.005 22.666,11.654 22.666,11.654C22.778,11.871 22.778,12.129 22.666,12.346C22.666,12.346 21.941,13.747 20.566,15.326ZM12,9.75C11.586,9.75 11.25,9.414 11.25,9C11.25,8.586 11.586,8.25 12,8.25C12.438,8.25 12.859,8.325 13.25,8.464C14.315,8.84 15.16,9.685 15.536,10.75L15.536,10.75C15.675,11.141 15.75,11.562 15.75,12C15.75,12.414 15.414,12.75 15,12.75C14.586,12.75 14.25,12.414 14.25,12C14.25,11.737 14.205,11.485 14.122,11.25C13.896,10.611 13.389,10.104 12.75,9.878C12.515,9.795 12.263,9.75 12,9.75ZM2.47,3.53C2.177,3.238 2.177,2.762 2.47,2.47C2.762,2.177 3.238,2.177 3.53,2.47L21.53,20.47C21.823,20.762 21.823,21.238 21.53,21.53C21.238,21.823 20.762,21.823 20.47,21.53L2.47,3.53ZM12,14.25C12.414,14.25 12.75,14.586 12.75,15C12.75,15.414 12.414,15.75 12,15.75C11.562,15.75 11.141,15.675 10.75,15.536L10.75,15.536C9.685,15.16 8.84,14.315 8.464,13.25C8.392,13.049 8.338,12.84 8.302,12.624C8.233,12.216 8.509,11.829 8.917,11.76C9.326,11.692 9.713,11.968 9.781,12.376C9.803,12.505 9.835,12.63 9.878,12.75C10.104,13.389 10.611,13.896 11.25,14.122C11.485,14.205 11.737,14.25 12,14.25ZM3.588,8.5C3.864,8.191 4.339,8.165 4.647,8.441C4.956,8.717 4.982,9.192 4.706,9.5C4.411,9.83 4.147,10.153 3.914,10.457C3.417,11.104 3.063,11.662 2.862,12C3.296,12.731 4.441,14.487 6.211,15.96C7.703,17.202 9.647,18.25 12,18.25C12.311,18.25 12.616,18.232 12.913,18.197C13.324,18.149 13.697,18.443 13.745,18.855C13.793,19.266 13.498,19.639 13.087,19.687C12.733,19.728 12.371,19.75 12,19.75C9.262,19.75 6.988,18.558 5.251,17.112C2.707,14.995 1.334,12.346 1.334,12.346C1.222,12.129 1.222,11.871 1.334,11.654C1.334,11.654 1.81,10.733 2.724,9.543C2.978,9.212 3.266,8.859 3.588,8.5Z"/>
    </g>
</svg>
