<?xml version="1.0" encoding="UTF-8" standalone="no"?>
<!DOCTYPE svg PUBLIC "-//W3C//DTD SVG 1.1//EN" "http://www.w3.org/Graphics/SVG/1.1/DTD/svg11.dtd">
<svg width="100%" height="100%" viewBox="0 0 800 800" version="1.1" xmlns="http://www.w3.org/2000/svg"
     xmlns:xlink="http://www.w3.org/1999/xlink" xml:space="preserve" xmlns:serif="http://www.serif.com/"
     style="fill-rule:evenodd;clip-rule:evenodd;stroke-linejoin:round;stroke-miterlimit:2;">
    <g transform="matrix(33.3333,0,0,33.3333,0,0)" fill="currentColor" stroke="none">
        <path d="M3.506,9.436L11.506,2.436C11.789,2.188 12.211,2.188 12.494,2.436L20.494,9.436C20.657,9.578 20.75,9.784 20.75,10L20.75,20C20.75,20.414 20.414,20.75 20,20.75L15,20.75C14.586,20.75 14.25,20.414 14.25,20L14.25,16C14.25,15.403 14.013,14.831 13.591,14.409C13.169,13.987 12.597,13.75 12,13.75C11.403,13.75 10.831,13.987 10.409,14.409C9.987,14.831 9.75,15.403 9.75,16L9.75,20C9.75,20.414 9.414,20.75 9,20.75L4,20.75C3.586,20.75 3.25,20.414 3.25,20L3.25,10C3.25,9.784 3.343,9.578 3.506,9.436ZM4.75,10.34L4.75,19.25L8.25,19.25L8.25,16C8.25,15.005 8.645,14.052 9.348,13.348C10.052,12.645 11.005,12.25 12,12.25C12.995,12.25 13.948,12.645 14.652,13.348C15.355,14.052 15.75,15.005 15.75,16L15.75,19.25L19.25,19.25L19.25,10.34L12,3.997L4.75,10.34Z"/>
    </g>
</svg>
