<?xml version="1.0" encoding="UTF-8" standalone="no"?>
<!DOCTYPE svg PUBLIC "-//W3C//DTD SVG 1.1//EN" "http://www.w3.org/Graphics/SVG/1.1/DTD/svg11.dtd">
<svg width="100%" height="100%" viewBox="0 0 800 800" version="1.1" xmlns="http://www.w3.org/2000/svg"
     xmlns:xlink="http://www.w3.org/1999/xlink" xml:space="preserve" xmlns:serif="http://www.serif.com/"
     style="fill-rule:evenodd;clip-rule:evenodd;stroke-linejoin:round;stroke-miterlimit:2;">
    <g transform="matrix(33.3333,0,0,33.3333,0,0)" fill="currentColor" stroke="none">
        <path d="M20.75,18C20.75,19.519 19.519,20.75 18,20.75L6,20.75C4.635,20.75 3.503,19.755 3.287,18.451C3.263,18.305 3.25,18.154 3.25,18L3.25,6C3.25,4.481 4.481,3.25 6,3.25L18,3.25C19.519,3.25 20.75,4.481 20.75,6L20.75,18ZM4.75,16.545L7.317,13.978C7.329,13.966 7.341,13.955 7.354,13.944C8.289,13.126 9.656,13.036 10.69,13.725L11.199,14.065C11.652,14.367 12.248,14.341 12.674,14.001L15.322,11.882C16.25,11.14 17.543,11.082 18.529,11.718L18.529,11.718C18.654,11.798 18.766,11.896 18.87,12L19.25,12.38L19.25,6C19.25,5.31 18.69,4.75 18,4.75L6,4.75C5.31,4.75 4.75,5.31 4.75,6L4.75,16.545ZM19.25,14.501L17.809,13.06C17.78,13.031 17.751,13.001 17.716,12.979C17.268,12.689 16.68,12.716 16.259,13.054L13.61,15.172C12.675,15.92 11.363,15.977 10.367,15.313L9.858,14.973C9.394,14.664 8.783,14.7 8.358,15.058L4.874,18.543C5.076,18.962 5.504,19.25 6,19.25L18,19.25C18.69,19.25 19.25,18.69 19.25,18L19.25,14.501ZM11.75,9C11.75,10.519 10.519,11.75 9,11.75C7.481,11.75 6.25,10.519 6.25,9C6.25,7.481 7.481,6.25 9,6.25C10.519,6.25 11.75,7.481 11.75,9ZM10.25,9C10.25,8.31 9.69,7.75 9,7.75C8.31,7.75 7.75,8.31 7.75,9C7.75,9.69 8.31,10.25 9,10.25C9.69,10.25 10.25,9.69 10.25,9Z"/>
    </g>
</svg>
