<?xml version="1.0" encoding="UTF-8" standalone="no"?>
<!DOCTYPE svg PUBLIC "-//W3C//DTD SVG 1.1//EN" "http://www.w3.org/Graphics/SVG/1.1/DTD/svg11.dtd">
<svg width="100%" height="100%" viewBox="0 0 800 800" version="1.1" xmlns="http://www.w3.org/2000/svg"
     xmlns:xlink="http://www.w3.org/1999/xlink" xml:space="preserve" xmlns:serif="http://www.serif.com/"
     style="fill-rule:evenodd;clip-rule:evenodd;stroke-linejoin:round;stroke-miterlimit:2;">
    <g transform="matrix(43.3333,0,0,43.3333,75,140)" fill="currentColor" stroke="none">
        <path d="M9,12C8.714,12 8.112,12.864 7.529,12.864C6.908,12.864 6.305,12 6,12L1.313,12C0.588,12 0,11.412 0,10.688L0,1.313C0,0.588 0.588,0 1.313,0L6,0C6.591,0 7.124,0.249 7.5,0.647C7.876,0.249 8.409,0 9,0L13.688,0C14.412,0 15,0.588 15,1.313L15,10.688C15,11.412 14.412,12 13.688,12L9,12ZM1.125,1.313L1.125,10.688C1.125,10.791 1.209,10.875 1.313,10.875L6,10.875C6.518,10.875 6.938,11.675 6.938,11.158L6.938,2.063C6.938,1.545 6.518,1.125 6,1.125L1.313,1.125C1.209,1.125 1.125,1.209 1.125,1.313ZM8.063,11.177C8.063,11.695 8.482,10.875 9,10.875L13.688,10.875C13.791,10.875 13.875,10.791 13.875,10.688L13.875,1.313C13.875,1.209 13.791,1.125 13.688,1.125L9,1.125C8.482,1.125 8.063,1.545 8.063,2.063L8.063,11.177Z"
              style="fill-rule:nonzero;"/>
    </g>
</svg>
