<?xml version="1.0" encoding="UTF-8" standalone="no"?>
<!DOCTYPE svg PUBLIC "-//W3C//DTD SVG 1.1//EN" "http://www.w3.org/Graphics/SVG/1.1/DTD/svg11.dtd">
<svg width="100%" height="100%" viewBox="0 0 800 800" version="1.1" xmlns="http://www.w3.org/2000/svg"
     xmlns:xlink="http://www.w3.org/1999/xlink" xml:space="preserve" xmlns:serif="http://www.serif.com/"
     style="fill-rule:evenodd;clip-rule:evenodd;stroke-linejoin:round;stroke-miterlimit:2;">
    <g transform="matrix(33.3333,0,0,33.3333,0,0)" fill="currentColor" stroke="none">
        <path d="M9,4.209L14.749,2.293C14.791,2.278 14.835,2.267 14.88,2.26C14.92,2.253 14.96,2.25 15,2.25C15.04,2.25 15.08,2.253 15.12,2.26C15.165,2.267 15.209,2.278 15.251,2.293L21.237,4.288C21.543,4.391 21.75,4.677 21.75,5L21.75,21C21.75,21.241 21.634,21.467 21.439,21.608C21.243,21.749 20.992,21.788 20.763,21.712L15,19.791L9.251,21.707C9.209,21.722 9.165,21.733 9.12,21.74C9.08,21.747 9.04,21.75 9,21.75C8.96,21.75 8.92,21.747 8.88,21.74C8.835,21.733 8.791,21.722 8.749,21.707L2.763,19.712C2.457,19.609 2.25,19.323 2.25,19L2.25,3C2.25,2.759 2.366,2.533 2.561,2.392C2.757,2.251 3.008,2.212 3.237,2.288L9,4.209ZM8.25,19.959L8.25,5.541L3.75,4.041L3.75,18.459L8.25,19.959ZM14.25,18.459L14.25,4.041L9.75,5.541L9.75,19.959L14.25,18.459ZM15.75,4.041L15.75,18.459L20.25,19.959L20.25,5.541L15.75,4.041Z"/>
    </g>
</svg>
