<?xml version="1.0" encoding="UTF-8" standalone="no"?>
<!DOCTYPE svg PUBLIC "-//W3C//DTD SVG 1.1//EN" "http://www.w3.org/Graphics/SVG/1.1/DTD/svg11.dtd">
<svg width="100%" height="100%" viewBox="0 0 800 800" version="1.1" xmlns="http://www.w3.org/2000/svg" xmlns:xlink="http://www.w3.org/1999/xlink" xml:space="preserve" xmlns:serif="http://www.serif.com/" style="fill-rule:evenodd;clip-rule:evenodd;stroke-linejoin:round;stroke-miterlimit:2;">
    <g transform="matrix(33.3333,0,0,33.3333,0,0)">
        <path d="M3.792,12.568C2.806,11.546 2.25,10.16 2.25,8.714C2.25,5.689 4.629,3.25 7.546,3.25C8.953,3.25 10.304,3.828 11.3,4.86L12,5.586L12.7,4.86C13.696,3.828 15.047,3.25 16.454,3.25C19.371,3.25 21.75,5.689 21.75,8.714C21.75,10.16 21.194,11.546 20.208,12.568L12.54,20.521C12.399,20.667 12.204,20.75 12,20.75C11.796,20.75 11.601,20.667 11.46,20.521L3.792,12.568ZM4.871,11.527L12,18.92L19.129,11.527C19.848,10.781 20.25,9.769 20.25,8.714C20.25,6.532 18.558,4.75 16.454,4.75C15.451,4.75 14.489,5.166 13.78,5.901L12.54,7.187C12.399,7.334 12.204,7.417 12,7.417C11.796,7.417 11.601,7.334 11.46,7.187L10.22,5.901C9.511,5.166 8.549,4.75 7.546,4.75C5.442,4.75 3.75,6.532 3.75,8.714C3.75,9.769 4.152,10.781 4.871,11.527Z"/>
    </g>
</svg>
