<?xml version="1.0" encoding="UTF-8" standalone="no"?>
<!DOCTYPE svg PUBLIC "-//W3C//DTD SVG 1.1//EN" "http://www.w3.org/Graphics/SVG/1.1/DTD/svg11.dtd">
<svg width="100%" height="100%" viewBox="0 0 800 800" version="1.1" xmlns="http://www.w3.org/2000/svg"
     xmlns:xlink="http://www.w3.org/1999/xlink" xml:space="preserve" xmlns:serif="http://www.serif.com/"
     style="fill-rule:evenodd;clip-rule:evenodd;stroke-linejoin:round;stroke-miterlimit:2;">
    <g transform="matrix(33.3333,0,0,33.3333,0,0)" fill="currentColor" stroke="none">
        <path d="M19,13.75C18.033,13.75 17.25,12.967 17.25,12C17.25,11.033 18.033,10.25 19,10.25C19.967,10.25 20.75,11.033 20.75,12C20.75,12.967 19.967,13.75 19,13.75ZM12,13.75C11.033,13.75 10.25,12.967 10.25,12C10.25,11.033 11.033,10.25 12,10.25C12.967,10.25 13.75,11.033 13.75,12C13.75,12.967 12.967,13.75 12,13.75ZM5,13.75C4.034,13.75 3.25,12.967 3.25,12C3.25,11.033 4.034,10.25 5,10.25C5.966,10.25 6.75,11.033 6.75,12C6.75,12.967 5.966,13.75 5,13.75Z"/>
    </g>
</svg>
