<?xml version="1.0" encoding="UTF-8" standalone="no"?>
<!DOCTYPE svg PUBLIC "-//W3C//DTD SVG 1.1//EN" "http://www.w3.org/Graphics/SVG/1.1/DTD/svg11.dtd">
<svg width="100%" height="100%" viewBox="0 0 800 800" version="1.1" xmlns="http://www.w3.org/2000/svg"
     xmlns:xlink="http://www.w3.org/1999/xlink" xml:space="preserve" xmlns:serif="http://www.serif.com/"
     style="fill-rule:evenodd;clip-rule:evenodd;stroke-linejoin:round;stroke-miterlimit:2;">
    <g transform="matrix(23.2119,0,0,23.2119,28.5761,28.6092)" fill="currentColor" stroke="none">
        <path d="M20.998,2L21.003,2C25.94,2 30.003,6.063 30.003,11C30.003,15.937 25.94,20 21.003,20C20.117,20 19.236,19.869 18.388,19.612L8,30L2,30L2,24L12.388,13.612C12.131,12.764 12,11.883 12,10.998C12,6.062 16.062,2 20.998,2ZM21,18L21.001,18C24.841,18 28.001,14.84 28.001,11C28.001,7.16 24.841,4 21.001,4C17.161,4 14.001,7.16 14.001,11C14.001,11.688 14.102,12.373 14.302,13.032L14.65,14.179L13.802,15.026L4,24.828L4,28L7.172,28L9.379,25.793L8,24.414L9.414,23L10.793,24.379L12.379,22.793L11,21.414L12.414,20L13.793,21.378L16.974,18.197L17.821,17.35L18.968,17.698C19.627,17.898 20.311,18 21,18ZM22,8C23.104,8 24,8.896 24,10C24,11.104 23.104,12 22,12C20.896,12 20,11.104 20,10C20,8.896 20.896,8 22,8Z"/>
    </g>
</svg>
