<?xml version="1.0" encoding="UTF-8" standalone="no"?>
<!DOCTYPE svg PUBLIC "-//W3C//DTD SVG 1.1//EN" "http://www.w3.org/Graphics/SVG/1.1/DTD/svg11.dtd">
<svg width="100%" height="100%" viewBox="0 0 800 800" version="1.1" xmlns="http://www.w3.org/2000/svg"
     xmlns:xlink="http://www.w3.org/1999/xlink" xml:space="preserve" xmlns:serif="http://www.serif.com/"
     style="fill-rule:evenodd;clip-rule:evenodd;stroke-linejoin:round;stroke-miterlimit:2;">
    <g transform="matrix(27.6596,0,0,27.6596,68.0851,68.0851)" fill="currentColor" stroke="none">
        <path d="M3,18.25C3.414,18.25 3.75,18.586 3.75,19C3.75,19.414 3.414,19.75 3,19.75L1,19.75C0.586,19.75 0.25,19.414 0.25,19L0.25,18C0.25,15.787 1.764,13.927 3.813,13.4C4.214,13.297 4.623,13.538 4.726,13.939C4.829,14.34 4.588,14.749 4.187,14.852C2.785,15.213 1.75,16.486 1.75,18L1.75,18.25L3,18.25ZM6.25,10.122C6.64,10.26 6.845,10.689 6.707,11.079C6.569,11.469 6.14,11.674 5.75,11.536C4.294,11.022 3.25,9.633 3.25,8C3.25,6.367 4.294,4.978 5.75,4.464C6.14,4.326 6.569,4.531 6.707,4.921C6.845,5.311 6.64,5.74 6.25,5.878C5.376,6.187 4.75,7.02 4.75,8C4.75,8.98 5.376,9.813 6.25,10.122ZM21,19.75C20.586,19.75 20.25,19.414 20.25,19C20.25,18.586 20.586,18.25 21,18.25L22.25,18.25L22.25,18C22.25,16.486 21.215,15.213 19.813,14.852C19.412,14.749 19.17,14.34 19.274,13.939C19.377,13.538 19.786,13.296 20.187,13.4C22.236,13.927 23.75,15.787 23.75,18L23.75,19C23.75,19.414 23.414,19.75 23,19.75L21,19.75ZM17.75,5.878C17.36,5.74 17.155,5.311 17.293,4.921C17.431,4.531 17.86,4.326 18.25,4.464C19.706,4.978 20.75,6.367 20.75,8C20.75,9.633 19.706,11.022 18.25,11.536C17.86,11.674 17.431,11.469 17.293,11.079C17.155,10.689 17.36,10.26 17.75,10.122C18.624,9.813 19.25,8.98 19.25,8C19.25,7.02 18.624,6.187 17.75,5.878ZM10,13.25L14,13.25C16.623,13.25 18.75,15.377 18.75,18L18.75,19C18.75,19.414 18.414,19.75 18,19.75L6,19.75C5.586,19.75 5.25,19.414 5.25,19L5.25,18C5.25,15.377 7.377,13.25 10,13.25ZM10,14.75C8.205,14.75 6.75,16.205 6.75,18L6.75,18.25L17.25,18.25L17.25,18C17.25,16.205 15.795,14.75 14,14.75L10,14.75ZM15.75,8C15.75,10.071 14.071,11.75 12,11.75C9.929,11.75 8.25,10.071 8.25,8C8.25,5.929 9.929,4.25 12,4.25C14.071,4.25 15.75,5.929 15.75,8ZM14.25,8C14.25,6.757 13.243,5.75 12,5.75C10.757,5.75 9.75,6.757 9.75,8C9.75,9.243 10.757,10.25 12,10.25C13.243,10.25 14.25,9.243 14.25,8Z"/>
    </g>
</svg>
