<?xml version="1.0" encoding="UTF-8" standalone="no"?>
<!DOCTYPE svg PUBLIC "-//W3C//DTD SVG 1.1//EN" "http://www.w3.org/Graphics/SVG/1.1/DTD/svg11.dtd">
<svg width="100%" height="100%" viewBox="0 0 800 800" version="1.1" xmlns="http://www.w3.org/2000/svg"
     xmlns:xlink="http://www.w3.org/1999/xlink" xml:space="preserve" xmlns:serif="http://www.serif.com/"
     style="fill-rule:evenodd;clip-rule:evenodd;stroke-linejoin:round;stroke-miterlimit:2;">
    <g transform="matrix(33.3333,0,0,33.3333,0,0)" fill="currentColor" stroke="none">
        <path d="M11.691,21.683C6.993,19.557 3.25,15.697 3.25,11C3.25,6.168 7.168,2.25 12,2.25C16.833,2.25 20.75,6.168 20.75,11C20.75,15.697 17.007,19.557 12.309,21.683C12.113,21.772 11.887,21.772 11.691,21.683ZM12,20.173C15.999,18.277 19.25,15.036 19.25,11C19.25,6.996 16.004,3.75 12,3.75C7.996,3.75 4.75,6.996 4.75,11C4.75,15.036 8.001,18.277 12,20.173ZM12,14.75C9.929,14.75 8.25,13.071 8.25,11C8.25,8.929 9.929,7.25 12,7.25C14.071,7.25 15.75,8.929 15.75,11C15.75,13.071 14.071,14.75 12,14.75ZM12,13.25C13.243,13.25 14.25,12.243 14.25,11C14.25,9.757 13.243,8.75 12,8.75C10.757,8.75 9.75,9.757 9.75,11C9.75,12.243 10.757,13.25 12,13.25Z"/>
    </g>
</svg>
