<?xml version="1.0" encoding="UTF-8" standalone="no"?>
<!DOCTYPE svg PUBLIC "-//W3C//DTD SVG 1.1//EN" "http://www.w3.org/Graphics/SVG/1.1/DTD/svg11.dtd">
<svg width="100%" height="100%" viewBox="0 0 800 800" version="1.1" xmlns="http://www.w3.org/2000/svg"
     xmlns:xlink="http://www.w3.org/1999/xlink" xml:space="preserve" xmlns:serif="http://www.serif.com/"
     style="fill-rule:evenodd;clip-rule:evenodd;stroke-linejoin:round;stroke-miterlimit:2;">
    <g transform="matrix(33.3333,0,0,33.3333,0,0)" fill="currentColor" stroke="none">
        <path d="M11.25,11.25L11.25,4C11.25,3.586 11.586,3.25 12,3.25C12.414,3.25 12.75,3.586 12.75,4L12.75,11.25L20,11.25C20.414,11.25 20.75,11.586 20.75,12C20.75,12.414 20.414,12.75 20,12.75L12.75,12.75L12.75,20C12.75,20.414 12.414,20.75 12,20.75C11.586,20.75 11.25,20.414 11.25,20L11.25,12.75L4,12.75C3.586,12.75 3.25,12.414 3.25,12C3.25,11.586 3.586,11.25 4,11.25L11.25,11.25Z"/>
    </g>
</svg>
