<?xml version="1.0" encoding="UTF-8" standalone="no"?>
<!DOCTYPE svg PUBLIC "-//W3C//DTD SVG 1.1//EN" "http://www.w3.org/Graphics/SVG/1.1/DTD/svg11.dtd">
<svg width="100%" height="100%" viewBox="0 0 800 800" version="1.1" xmlns="http://www.w3.org/2000/svg"
     xmlns:xlink="http://www.w3.org/1999/xlink" xml:space="preserve" xmlns:serif="http://www.serif.com/"
     style="fill-rule:evenodd;clip-rule:evenodd;stroke-linejoin:round;stroke-miterlimit:2;">
    <g transform="matrix(33.3333,0,0,33.3333,0,0)" fill="currentColor" stroke="none">
        <path d="M21.75,12C21.75,17.385 17.385,21.75 12,21.75C6.615,21.75 2.25,17.385 2.25,12C2.25,6.615 6.615,2.25 12,2.25C17.385,2.25 21.75,6.615 21.75,12ZM20.25,12C20.25,7.444 16.556,3.75 12,3.75C7.444,3.75 3.75,7.444 3.75,12C3.75,16.556 7.444,20.25 12,20.25C16.556,20.25 20.25,16.556 20.25,12ZM11.25,11.25L11.25,7C11.25,6.586 11.586,6.25 12,6.25C12.414,6.25 12.75,6.586 12.75,7L12.75,11.25L17,11.25C17.414,11.25 17.75,11.586 17.75,12C17.75,12.414 17.414,12.75 17,12.75L12.75,12.75L12.75,17C12.75,17.414 12.414,17.75 12,17.75C11.586,17.75 11.25,17.414 11.25,17L11.25,12.75L7,12.75C6.586,12.75 6.25,12.414 6.25,12C6.25,11.586 6.586,11.25 7,11.25L11.25,11.25Z"/>
    </g>
</svg>
