<?xml version="1.0" encoding="UTF-8" standalone="no"?>
<!DOCTYPE svg PUBLIC "-//W3C//DTD SVG 1.1//EN" "http://www.w3.org/Graphics/SVG/1.1/DTD/svg11.dtd">
<svg width="100%" height="100%" viewBox="0 0 800 800" version="1.1" xmlns="http://www.w3.org/2000/svg"
     xmlns:xlink="http://www.w3.org/1999/xlink" xml:space="preserve" xmlns:serif="http://www.serif.com/"
     style="fill-rule:evenodd;clip-rule:evenodd;stroke-linejoin:round;stroke-miterlimit:2;">
    <g transform="matrix(33.3333,0,0,33.3333,0,0)" fill="currentColor" stroke="none">
        <path d="M7.25,10.25L7.25,7C7.25,5.417 8.2,2.25 12,2.25C15.8,2.25 16.75,5.417 16.75,7L16.75,10.25L19,10.25C19.414,10.25 19.75,10.586 19.75,11L19.75,21C19.75,21.414 19.414,21.75 19,21.75L5,21.75C4.586,21.75 4.25,21.414 4.25,21L4.25,11C4.25,10.586 4.586,10.25 5,10.25L7.25,10.25ZM18.25,11.75L5.75,11.75L5.75,20.25L18.25,20.25L18.25,11.75ZM8.75,10.25L15.25,10.25L15.25,7C15.25,5.917 14.6,3.75 12,3.75C9.4,3.75 8.75,5.917 8.75,7L8.75,10.25Z"/>
    </g>
</svg>
