<?xml version="1.0" encoding="UTF-8" standalone="no"?>
<!DOCTYPE svg PUBLIC "-//W3C//DTD SVG 1.1//EN" "http://www.w3.org/Graphics/SVG/1.1/DTD/svg11.dtd">
<svg width="100%" height="100%" viewBox="0 0 800 800" version="1.1" xmlns="http://www.w3.org/2000/svg"
     xmlns:xlink="http://www.w3.org/1999/xlink" xml:space="preserve" xmlns:serif="http://www.serif.com/"
     style="fill-rule:evenodd;clip-rule:evenodd;stroke-linejoin:round;stroke-miterlimit:2;">
    <g transform="matrix(33.3333,0,0,33.3333,0,0)" fill="currentColor" stroke="none">
        <path d="M4.25,14C4.25,10.398 6.923,5.541 11.579,2.38C11.833,2.207 12.167,2.207 12.421,2.38C17.077,5.541 19.75,10.398 19.75,14C19.75,18.892 15.785,21.75 12,21.75C8.215,21.75 4.25,18.892 4.25,14ZM5.75,14C5.75,17.945 8.948,20.25 12,20.25C15.052,20.25 18.25,17.945 18.25,14C18.25,10.875 15.927,6.752 12,3.916C8.073,6.752 5.75,10.875 5.75,14ZM11.5,15.75C11.914,15.75 12.25,16.086 12.25,16.5C12.25,16.914 11.914,17.25 11.5,17.25C9.705,17.25 8.25,15.795 8.25,14C8.25,13.586 8.586,13.25 9,13.25C9.414,13.25 9.75,13.586 9.75,14C9.75,14.966 10.534,15.75 11.5,15.75Z"/>
    </g>
</svg>
