<?xml version="1.0" encoding="UTF-8" standalone="no"?>
<!DOCTYPE svg PUBLIC "-//W3C//DTD SVG 1.1//EN" "http://www.w3.org/Graphics/SVG/1.1/DTD/svg11.dtd">
<svg width="100%" height="100%" viewBox="0 0 800 800" version="1.1" xmlns="http://www.w3.org/2000/svg" xmlns:xlink="http://www.w3.org/1999/xlink" xml:space="preserve" xmlns:serif="http://www.serif.com/" style="fill-rule:evenodd;clip-rule:evenodd;stroke-linejoin:round;stroke-miterlimit:2;">
    <g transform="matrix(29.6804,0,0,29.6804,97.2603,204.11)">
        <path d="M16.05,0.75L12.45,0.75L12.45,-0.75L16.05,-0.75L16.05,-4.35L17.55,-4.35L17.55,-0.75L21.15,-0.75L21.15,0.75L17.55,0.75L17.55,4.35L16.05,4.35L16.05,0.75ZM8.4,-0.75L8.4,0.75C4.203,0.75 0.75,4.203 0.75,8.4C0.75,12.597 4.203,16.05 8.4,16.05C12.597,16.05 16.05,12.597 16.05,8.4L17.55,8.4C17.55,13.42 13.42,17.55 8.4,17.55C3.38,17.55 -0.75,13.42 -0.75,8.4C-0.75,3.38 3.38,-0.75 8.4,-0.75ZM3.271,10.525L4.657,9.949C4.861,10.441 5.16,10.887 5.537,11.264L5.537,11.264C6.295,12.024 7.326,12.451 8.4,12.45L8.401,12.45C9.474,12.451 10.505,12.024 11.263,11.264L11.264,11.263C11.64,10.887 11.939,10.441 12.143,9.949L13.529,10.525C13.249,11.198 12.84,11.809 12.325,12.324C11.285,13.366 9.872,13.952 8.4,13.95C6.928,13.952 5.515,13.366 4.475,12.324C3.96,11.809 3.551,11.198 3.271,10.525ZM6,4.3C6.938,4.3 7.7,5.062 7.7,6C7.7,6.938 6.938,7.7 6,7.7C5.062,7.7 4.3,6.938 4.3,6C4.3,5.062 5.062,4.3 6,4.3ZM6,5.3C5.614,5.3 5.3,5.614 5.3,6C5.3,6.386 5.614,6.7 6,6.7C6.386,6.7 6.7,6.386 6.7,6C6.7,5.614 6.386,5.3 6,5.3ZM10.8,4.3C11.738,4.3 12.5,5.062 12.5,6C12.5,6.938 11.738,7.7 10.8,7.7C9.862,7.7 9.1,6.938 9.1,6C9.1,5.062 9.862,4.3 10.8,4.3ZM10.8,5.3C10.414,5.3 10.1,5.614 10.1,6C10.1,6.386 10.414,6.7 10.8,6.7C11.186,6.7 11.5,6.386 11.5,6C11.5,5.614 11.186,5.3 10.8,5.3Z"/>
    </g>
</svg>
