<?xml version="1.0" encoding="UTF-8" standalone="no"?>
<!DOCTYPE svg PUBLIC "-//W3C//DTD SVG 1.1//EN" "http://www.w3.org/Graphics/SVG/1.1/DTD/svg11.dtd">
<svg width="100%" height="100%" viewBox="0 0 800 800" version="1.1" xmlns="http://www.w3.org/2000/svg"
     xmlns:xlink="http://www.w3.org/1999/xlink" xml:space="preserve" xmlns:serif="http://www.serif.com/"
     style="fill-rule:evenodd;clip-rule:evenodd;stroke-linejoin:round;stroke-miterlimit:2;">
    <g transform="matrix(-33.3333,-1.63286e-14,-1.63286e-14,33.3333,800,3.41061e-13)" fill="currentColor" stroke="none">
        <path d="M20.25,6.303L20.25,2C20.25,1.586 20.586,1.25 21,1.25C21.414,1.25 21.75,1.586 21.75,2L21.75,8C21.75,8.094 21.732,8.185 21.701,8.268C21.669,8.352 21.621,8.431 21.558,8.501C21.486,8.582 21.399,8.643 21.306,8.685C21.212,8.727 21.109,8.75 21,8.75L15,8.75C14.586,8.75 14.25,8.414 14.25,8C14.25,7.586 14.586,7.25 15,7.25L19.08,7.25C17.359,5.663 15.588,4.174 13.15,3.83C11.379,3.581 9.574,3.914 8.009,4.78C6.443,5.645 5.202,6.996 4.471,8.628C3.739,10.261 3.559,12.087 3.956,13.831C4.353,15.575 5.306,17.142 6.671,18.298C8.037,19.453 9.741,20.134 11.527,20.236C13.312,20.339 15.083,19.859 16.572,18.868C18.061,17.877 19.188,16.428 19.782,14.741C19.92,14.351 20.349,14.146 20.739,14.283C21.129,14.421 21.335,14.85 21.197,15.24C20.495,17.234 19.163,18.945 17.403,20.116C15.644,21.288 13.551,21.855 11.44,21.734C9.33,21.612 7.316,20.808 5.702,19.443C4.088,18.078 2.962,16.225 2.493,14.163C2.024,12.102 2.238,9.944 3.102,8.015C3.966,6.086 5.433,4.49 7.283,3.467C9.133,2.444 11.266,2.051 13.359,2.345C16.188,2.743 18.243,4.477 20.25,6.303Z"/>
    </g>
</svg>
