<?xml version="1.0" encoding="UTF-8" standalone="no"?>
<!DOCTYPE svg PUBLIC "-//W3C//DTD SVG 1.1//EN" "http://www.w3.org/Graphics/SVG/1.1/DTD/svg11.dtd">
<svg width="100%" height="100%" viewBox="0 0 800 800" version="1.1" xmlns="http://www.w3.org/2000/svg"
     xmlns:xlink="http://www.w3.org/1999/xlink" xml:space="preserve" xmlns:serif="http://www.serif.com/"
     style="fill-rule:evenodd;clip-rule:evenodd;stroke-linejoin:round;stroke-miterlimit:2;">
    <g transform="matrix(33.3333,0,0,33.3333,0,0)" fill="currentColor" stroke="none">
        <path d="M10.939,12L4.47,5.53C4.177,5.238 4.177,4.762 4.47,4.47C4.762,4.177 5.238,4.177 5.53,4.47L12,10.939L18.47,4.47C18.762,4.177 19.238,4.177 19.53,4.47C19.823,4.762 19.823,5.238 19.53,5.53L13.061,12L19.53,18.47C19.823,18.762 19.823,19.238 19.53,19.53C19.238,19.823 18.762,19.823 18.47,19.53L12,13.061L5.53,19.53C5.238,19.823 4.762,19.823 4.47,19.53C4.177,19.238 4.177,18.762 4.47,18.47L10.939,12Z"/>
    </g>
</svg>
