<?xml version="1.0" encoding="UTF-8" standalone="no"?>
<!DOCTYPE svg PUBLIC "-//W3C//DTD SVG 1.1//EN" "http://www.w3.org/Graphics/SVG/1.1/DTD/svg11.dtd">
<svg width="100%" height="100%" viewBox="0 0 800 800" version="1.1" xmlns="http://www.w3.org/2000/svg"
     xmlns:xlink="http://www.w3.org/1999/xlink" xml:space="preserve" xmlns:serif="http://www.serif.com/"
     style="fill-rule:evenodd;clip-rule:evenodd;stroke-linejoin:round;stroke-miterlimit:2;">
    <g transform="matrix(33.3333,0,0,33.3333,0,0)" fill="currentColor" stroke="none">
        <path d="M21.75,12C21.75,17.385 17.385,21.75 12,21.75C6.615,21.75 2.25,17.385 2.25,12C2.25,6.615 6.615,2.25 12,2.25C17.385,2.25 21.75,6.615 21.75,12ZM20.25,12C20.25,7.444 16.556,3.75 12,3.75C7.444,3.75 3.75,7.444 3.75,12C3.75,16.556 7.444,20.25 12,20.25C16.556,20.25 20.25,16.556 20.25,12ZM10.939,12L7.47,8.53C7.177,8.238 7.177,7.762 7.47,7.47C7.762,7.177 8.238,7.177 8.53,7.47L12,10.939L15.47,7.47C15.762,7.177 16.238,7.177 16.53,7.47C16.823,7.762 16.823,8.238 16.53,8.53L13.061,12L16.53,15.47C16.823,15.762 16.823,16.238 16.53,16.53C16.238,16.823 15.762,16.823 15.47,16.53L12,13.061L8.53,16.53C8.238,16.823 7.762,16.823 7.47,16.53C7.177,16.238 7.177,15.762 7.47,15.47L10.939,12Z"/>
    </g>
</svg>
