<?xml version="1.0" encoding="UTF-8" standalone="no"?>
<!DOCTYPE svg PUBLIC "-//W3C//DTD SVG 1.1//EN" "http://www.w3.org/Graphics/SVG/1.1/DTD/svg11.dtd">
<svg width="100%" height="100%" viewBox="0 0 800 800" version="1.1" xmlns="http://www.w3.org/2000/svg"
     xmlns:xlink="http://www.w3.org/1999/xlink" xml:space="preserve" xmlns:serif="http://www.serif.com/"
     style="fill-rule:evenodd;clip-rule:evenodd;stroke-linejoin:round;stroke-miterlimit:2;">
    <g transform="matrix(33.3333,0,0,33.3333,0,0)" fill="currentColor" stroke="none">
        <path d="M6.47,15.53C6.177,15.238 6.177,14.762 6.47,14.47C6.762,14.177 7.238,14.177 7.53,14.47L12,18.939L16.47,14.47C16.762,14.177 17.238,14.177 17.53,14.47C17.823,14.762 17.823,15.238 17.53,15.53L12.53,20.53C12.237,20.823 11.763,20.823 11.47,20.53L6.47,15.53ZM17.53,8.47C17.823,8.762 17.823,9.238 17.53,9.53C17.238,9.823 16.762,9.823 16.47,9.53L12,5.061L7.53,9.53C7.238,9.823 6.762,9.823 6.47,9.53C6.177,9.238 6.177,8.762 6.47,8.47L11.47,3.47C11.763,3.177 12.237,3.177 12.53,3.47L17.53,8.47Z"/>
    </g>
</svg>
