<?xml version="1.0" encoding="UTF-8" standalone="no"?>
<!DOCTYPE svg PUBLIC "-//W3C//DTD SVG 1.1//EN" "http://www.w3.org/Graphics/SVG/1.1/DTD/svg11.dtd">
<svg width="100%" height="100%" viewBox="0 0 800 800" version="1.1" xmlns="http://www.w3.org/2000/svg" xmlns:xlink="http://www.w3.org/1999/xlink" xml:space="preserve" xmlns:serif="http://www.serif.com/" style="fill-rule:evenodd;clip-rule:evenodd;stroke-linejoin:round;stroke-miterlimit:2;">
    <g transform="matrix(33.3333,0,0,33.3333,0,0)">
        <path d="M16.84,15.779L20.53,19.47C20.823,19.762 20.823,20.238 20.53,20.53C20.238,20.823 19.762,20.823 19.47,20.53L15.779,16.84C14.349,18.033 12.508,18.75 10.5,18.75C5.944,18.75 2.25,15.056 2.25,10.5C2.25,5.944 5.944,2.25 10.5,2.25C15.056,2.25 18.75,5.944 18.75,10.5C18.75,12.508 18.033,14.349 16.84,15.779ZM15.273,15.273C16.494,14.051 17.25,12.364 17.25,10.5C17.25,6.772 14.228,3.75 10.5,3.75C6.772,3.75 3.75,6.772 3.75,10.5C3.75,14.228 6.772,17.25 10.5,17.25C12.364,17.25 14.051,16.494 15.273,15.273Z"/>
    </g>
</svg>
