<?xml version="1.0" encoding="UTF-8" standalone="no"?>
<!DOCTYPE svg PUBLIC "-//W3C//DTD SVG 1.1//EN" "http://www.w3.org/Graphics/SVG/1.1/DTD/svg11.dtd">
<svg width="100%" height="100%" viewBox="0 0 800 800" version="1.1" xmlns="http://www.w3.org/2000/svg"
     xmlns:xlink="http://www.w3.org/1999/xlink" xml:space="preserve" xmlns:serif="http://www.serif.com/"
     style="fill-rule:evenodd;clip-rule:evenodd;stroke-linejoin:round;stroke-miterlimit:2;">
    <g transform="matrix(33.3333,0,0,33.3333,0,0)" fill="currentColor" stroke="none">
        <path d="M8.951,9.686L14.377,6.973C14.294,6.663 14.25,6.336 14.25,6C14.25,3.929 15.929,2.25 18,2.25C20.071,2.25 21.75,3.929 21.75,6C21.75,8.071 20.071,9.75 18,9.75C16.802,9.75 15.735,9.188 15.049,8.314L9.623,11.027C9.706,11.337 9.75,11.664 9.75,12C9.75,12.336 9.706,12.663 9.623,12.973L15.049,15.686C15.735,14.812 16.802,14.25 18,14.25C20.071,14.25 21.75,15.929 21.75,18C21.75,20.071 20.071,21.75 18,21.75C15.929,21.75 14.25,20.071 14.25,18C14.25,17.664 14.294,17.337 14.377,17.027L8.951,14.314C8.265,15.188 7.198,15.75 6,15.75C3.929,15.75 2.25,14.071 2.25,12C2.25,9.929 3.929,8.25 6,8.25C7.198,8.25 8.265,8.812 8.951,9.686ZM20.25,18C20.25,16.757 19.243,15.75 18,15.75C16.757,15.75 15.75,16.757 15.75,18C15.75,19.243 16.757,20.25 18,20.25C19.243,20.25 20.25,19.243 20.25,18ZM8.25,12C8.25,10.757 7.243,9.75 6,9.75C4.757,9.75 3.75,10.757 3.75,12C3.75,13.243 4.757,14.25 6,14.25C7.243,14.25 8.25,13.243 8.25,12ZM20.25,6C20.25,4.757 19.243,3.75 18,3.75C16.757,3.75 15.75,4.757 15.75,6C15.75,7.243 16.757,8.25 18,8.25C19.243,8.25 20.25,7.243 20.25,6Z"/>
    </g>
</svg>
