<?xml version="1.0" encoding="UTF-8" standalone="no"?>
<!DOCTYPE svg PUBLIC "-//W3C//DTD SVG 1.1//EN" "http://www.w3.org/Graphics/SVG/1.1/DTD/svg11.dtd">
<svg width="100%" height="100%" viewBox="0 0 800 800" version="1.1" xmlns="http://www.w3.org/2000/svg"
     xmlns:xlink="http://www.w3.org/1999/xlink" xml:space="preserve" xmlns:serif="http://www.serif.com/"
     style="fill-rule:evenodd;clip-rule:evenodd;stroke-linejoin:round;stroke-miterlimit:2;">
    <g transform="matrix(33.3333,0,0,33.3333,0,0)" fill="currentColor" stroke="none">
        <path d="M5.436,4.25L21,4.25C21.241,4.25 21.467,4.366 21.608,4.561C21.749,4.757 21.788,5.008 21.712,5.237L18.712,14.237C18.609,14.543 18.323,14.75 18,14.75L6.936,14.75L7.15,16.25L17,16.25C18.519,16.25 19.75,17.481 19.75,19C19.75,20.519 18.519,21.75 17,21.75C15.481,21.75 14.25,20.519 14.25,19C14.25,18.55 14.358,18.125 14.55,17.75L11.45,17.75C11.642,18.125 11.75,18.55 11.75,19C11.75,20.519 10.519,21.75 9,21.75C7.481,21.75 6.25,20.519 6.25,19C6.25,18.55 6.358,18.125 6.55,17.75L6.5,17.75C6.127,17.75 5.81,17.476 5.758,17.106C5.758,17.106 5.328,14.103 5.327,14.095C5.327,14.095 4.043,5.103 4.042,5.096L3.85,3.75L2,3.75C1.586,3.75 1.25,3.414 1.25,3C1.25,2.586 1.586,2.25 2,2.25L4.5,2.25C4.873,2.25 5.19,2.524 5.242,2.894L5.436,4.25ZM6.722,13.25L17.459,13.25L19.959,5.75L5.65,5.75L6.722,13.25ZM9,17.75C8.31,17.75 7.75,18.31 7.75,19C7.75,19.69 8.31,20.25 9,20.25C9.69,20.25 10.25,19.69 10.25,19C10.25,18.31 9.69,17.75 9,17.75ZM17,17.75C16.31,17.75 15.75,18.31 15.75,19C15.75,19.69 16.31,20.25 17,20.25C17.69,20.25 18.25,19.69 18.25,19C18.25,18.31 17.69,17.75 17,17.75Z"/>
    </g>
</svg>
