<?xml version="1.0" encoding="UTF-8" standalone="no"?>
<!DOCTYPE svg PUBLIC "-//W3C//DTD SVG 1.1//EN" "http://www.w3.org/Graphics/SVG/1.1/DTD/svg11.dtd">
<svg width="100%" height="100%" viewBox="0 0 800 800" version="1.1" xmlns="http://www.w3.org/2000/svg" xmlns:xlink="http://www.w3.org/1999/xlink" xml:space="preserve" xmlns:serif="http://www.serif.com/" style="fill-rule:evenodd;clip-rule:evenodd;stroke-linejoin:round;stroke-miterlimit:2;">
    <g transform="matrix(33.3333,0,0,33.3333,0,0)">
        <path d="M12,4.25C14.738,4.25 17.012,5.442 18.749,6.888C21.293,9.005 22.666,11.654 22.666,11.654C22.778,11.871 22.778,12.129 22.666,12.346C22.666,12.346 21.293,14.995 18.749,17.112C17.012,18.558 14.738,19.75 12,19.75C9.262,19.75 6.988,18.558 5.251,17.112C2.707,14.995 1.334,12.346 1.334,12.346C1.222,12.129 1.222,11.871 1.334,11.654C1.334,11.654 2.707,9.005 5.251,6.888C6.988,5.442 9.262,4.25 12,4.25ZM12,5.75C9.647,5.75 7.703,6.798 6.211,8.04C4.441,9.514 3.295,11.269 2.862,12C3.295,12.731 4.441,14.486 6.211,15.96C7.703,17.202 9.647,18.25 12,18.25C14.353,18.25 16.297,17.202 17.789,15.96C19.559,14.486 20.705,12.731 21.138,12C20.705,11.269 19.559,9.514 17.789,8.04C16.297,6.798 14.353,5.75 12,5.75ZM12,15.75C9.929,15.75 8.25,14.071 8.25,12C8.25,9.929 9.929,8.25 12,8.25C14.071,8.25 15.75,9.929 15.75,12C15.75,14.071 14.071,15.75 12,15.75ZM12,14.25C13.243,14.25 14.25,13.243 14.25,12C14.25,10.757 13.243,9.75 12,9.75C10.757,9.75 9.75,10.757 9.75,12C9.75,13.243 10.757,14.25 12,14.25Z"/>
    </g>
</svg>
