<?xml version="1.0" encoding="UTF-8" standalone="no"?>
<!DOCTYPE svg PUBLIC "-//W3C//DTD SVG 1.1//EN" "http://www.w3.org/Graphics/SVG/1.1/DTD/svg11.dtd">
<svg width="100%" height="100%" viewBox="0 0 800 800" version="1.1" xmlns="http://www.w3.org/2000/svg"
     xmlns:xlink="http://www.w3.org/1999/xlink" xml:space="preserve" xmlns:serif="http://www.serif.com/"
     style="fill-rule:evenodd;clip-rule:evenodd;stroke-linejoin:round;stroke-miterlimit:2;">
    <g transform="matrix(33.3333,0,0,33.3333,0,0)" fill="currentColor" stroke="none">
        <path d="M5.727,9.244L3.831,8.15C3.472,7.943 3.349,7.483 3.556,7.125C3.763,6.767 4.222,6.644 4.581,6.85L6.477,7.945L5.847,5.596C5.74,5.196 5.978,4.785 6.378,4.677C6.778,4.57 7.189,4.808 7.296,5.208L8.314,9.006L11.25,10.701L11.25,7.311L8.47,4.53C8.177,4.238 8.177,3.762 8.47,3.47C8.762,3.177 9.238,3.177 9.53,3.47L11.25,5.189L11.25,3C11.25,2.586 11.586,2.25 12,2.25C12.414,2.25 12.75,2.586 12.75,3L12.75,5.189L14.47,3.47C14.762,3.177 15.238,3.177 15.53,3.47C15.823,3.762 15.823,4.238 15.53,4.53L12.75,7.311L12.75,10.701L15.686,9.006L16.704,5.208C16.811,4.808 17.222,4.57 17.622,4.677C18.022,4.785 18.26,5.196 18.153,5.596L17.523,7.945L19.419,6.85C19.778,6.644 20.237,6.767 20.444,7.125C20.651,7.483 20.528,7.943 20.169,8.15L18.273,9.244L20.622,9.874C21.022,9.981 21.26,10.392 21.153,10.792C21.046,11.192 20.634,11.43 20.234,11.322L16.436,10.305L13.5,12L16.436,13.695L20.234,12.677C20.634,12.57 21.046,12.808 21.153,13.208C21.26,13.608 21.022,14.019 20.622,14.126L18.273,14.756L20.169,15.85C20.528,16.057 20.651,16.517 20.444,16.875C20.237,17.233 19.778,17.356 19.419,17.15L17.523,16.055L18.153,18.404C18.26,18.804 18.022,19.215 17.622,19.322C17.222,19.43 16.811,19.192 16.704,18.792L15.686,14.994L12.75,13.299L12.75,16.689L15.53,19.47C15.823,19.762 15.823,20.238 15.53,20.53C15.238,20.823 14.762,20.823 14.47,20.53L12.75,18.811L12.75,21C12.75,21.414 12.414,21.75 12,21.75C11.586,21.75 11.25,21.414 11.25,21L11.25,18.811L9.53,20.53C9.238,20.823 8.762,20.823 8.47,20.53C8.177,20.238 8.177,19.762 8.47,19.47L11.25,16.689L11.25,13.299L8.314,14.994L7.296,18.792C7.189,19.192 6.778,19.43 6.378,19.322C5.978,19.215 5.74,18.804 5.847,18.404L6.477,16.055L4.581,17.15C4.222,17.356 3.763,17.233 3.556,16.875C3.349,16.517 3.472,16.057 3.831,15.85L5.727,14.756L3.378,14.126C2.978,14.019 2.74,13.608 2.847,13.208C2.954,12.808 3.366,12.57 3.766,12.677L7.564,13.695L10.5,12L7.564,10.305L3.766,11.322C3.366,11.43 2.954,11.192 2.847,10.792C2.74,10.392 2.978,9.981 3.378,9.874L5.727,9.244Z"/>
    </g>
</svg>
