<?xml version="1.0" encoding="UTF-8" standalone="no"?>
<!DOCTYPE svg PUBLIC "-//W3C//DTD SVG 1.1//EN" "http://www.w3.org/Graphics/SVG/1.1/DTD/svg11.dtd">
<svg width="100%" height="100%" viewBox="0 0 800 800" version="1.1" xmlns="http://www.w3.org/2000/svg" xmlns:xlink="http://www.w3.org/1999/xlink" xml:space="preserve" xmlns:serif="http://www.serif.com/" style="fill-rule:evenodd;clip-rule:evenodd;stroke-linejoin:round;stroke-miterlimit:2;">
    <g transform="matrix(33.3333,0,0,33.3333,0,0)">
        <path d="M16.75,7.892L20.721,6.304C20.953,6.211 21.214,6.239 21.42,6.379C21.627,6.518 21.75,6.751 21.75,7L21.75,17C21.75,17.249 21.627,17.482 21.42,17.621C21.214,17.761 20.953,17.789 20.721,17.696L16.75,16.108L16.75,17.5C16.75,18.467 15.967,19.25 15,19.25L4,19.25C3.034,19.25 2.25,18.467 2.25,17.5L2.25,6.5C2.25,5.534 3.034,4.75 4,4.75L15,4.75C15.967,4.75 16.75,5.534 16.75,6.5L16.75,7.892ZM15.25,15.013C15.25,15.004 15.25,9.014 15.25,9.014C15.25,9.005 15.25,6.5 15.25,6.5C15.25,6.362 15.138,6.25 15,6.25L4,6.25C3.862,6.25 3.75,6.362 3.75,6.5L3.75,17.5C3.75,17.638 3.862,17.75 4,17.75L15,17.75C15.138,17.75 15.25,17.638 15.25,17.5L15.25,15.013ZM16.75,9.508L16.75,14.492L20.25,15.892L20.25,8.108L16.75,9.508Z"/>
    </g>
</svg>
