<?xml version="1.0" encoding="UTF-8" standalone="no"?>
<!DOCTYPE svg PUBLIC "-//W3C//DTD SVG 1.1//EN" "http://www.w3.org/Graphics/SVG/1.1/DTD/svg11.dtd">
<svg width="100%" height="100%" viewBox="0 0 800 800" version="1.1" xmlns="http://www.w3.org/2000/svg"
     xmlns:xlink="http://www.w3.org/1999/xlink" xml:space="preserve" xmlns:serif="http://www.serif.com/"
     style="fill-rule:evenodd;clip-rule:evenodd;stroke-linejoin:round;stroke-miterlimit:2;">
    <g transform="matrix(33.3333,0,0,33.3333,0,0)" fill="currentColor" stroke="none">
        <path d="M8.25,5.25L8.25,5C8.25,3.481 9.481,2.25 11,2.25L13,2.25C14.519,2.25 15.75,3.481 15.75,5L15.75,5.25L18,5.25C19.519,5.25 20.75,6.481 20.75,8L20.75,18C20.75,19.519 19.519,20.75 18,20.75L6,20.75C4.481,20.75 3.25,19.519 3.25,18L3.25,8C3.25,6.481 4.481,5.25 6,5.25L8.25,5.25ZM4.75,12C4.75,12.69 5.31,13.25 6,13.25L11.25,13.25L11.25,12C11.25,11.586 11.586,11.25 12,11.25C12.414,11.25 12.75,11.586 12.75,12L12.75,13.25L18,13.25C18.69,13.25 19.25,12.69 19.25,12L19.25,8C19.25,7.31 18.69,6.75 18,6.75L6,6.75C5.31,6.75 4.75,7.31 4.75,8L4.75,12ZM19.25,14.45C18.875,14.642 18.45,14.75 18,14.75L12.75,14.75L12.75,16C12.75,16.414 12.414,16.75 12,16.75C11.586,16.75 11.25,16.414 11.25,16L11.25,14.75L6,14.75C5.55,14.75 5.125,14.642 4.75,14.45L4.75,18C4.75,18.69 5.31,19.25 6,19.25L18,19.25C18.69,19.25 19.25,18.69 19.25,18L19.25,14.45ZM9.75,5.25L14.25,5.25L14.25,5C14.25,4.31 13.69,3.75 13,3.75L11,3.75C10.31,3.75 9.75,4.31 9.75,5L9.75,5.25Z"/>
    </g>
</svg>
