<?xml version="1.0" encoding="UTF-8" standalone="no"?>
<!DOCTYPE svg PUBLIC "-//W3C//DTD SVG 1.1//EN" "http://www.w3.org/Graphics/SVG/1.1/DTD/svg11.dtd">
<svg width="100%" height="100%" viewBox="0 0 800 800" version="1.1" xmlns="http://www.w3.org/2000/svg" xmlns:xlink="http://www.w3.org/1999/xlink" xml:space="preserve" xmlns:serif="http://www.serif.com/" style="fill-rule:evenodd;clip-rule:evenodd;stroke-linejoin:round;stroke-miterlimit:2;">
    <g transform="matrix(33.3333,0,0,33.3333,0,0)">
        <path d="M2.75,20.5L2.75,13.5C2.75,13.086 3.086,12.75 3.5,12.75L20.5,12.75C20.914,12.75 21.25,13.086 21.25,13.5L21.25,20.5C21.25,20.914 20.914,21.25 20.5,21.25L3.5,21.25C3.086,21.25 2.75,20.914 2.75,20.5ZM4.25,19.75L19.75,19.75L19.75,14.25L4.25,14.25L4.25,19.75ZM2.75,10.5L2.75,3.5C2.75,3.086 3.086,2.75 3.5,2.75L20.5,2.75C20.914,2.75 21.25,3.086 21.25,3.5L21.25,10.5C21.25,10.914 20.914,11.25 20.5,11.25L3.5,11.25C3.086,11.25 2.75,10.914 2.75,10.5ZM4.25,9.75L19.75,9.75L19.75,4.25L4.25,4.25L4.25,9.75Z"/>
    </g>
</svg>
