<?xml version="1.0" encoding="UTF-8" standalone="no"?>
<!DOCTYPE svg PUBLIC "-//W3C//DTD SVG 1.1//EN" "http://www.w3.org/Graphics/SVG/1.1/DTD/svg11.dtd">
<svg width="100%" height="100%" viewBox="0 0 800 800" version="1.1" xmlns="http://www.w3.org/2000/svg" xmlns:xlink="http://www.w3.org/1999/xlink" xml:space="preserve" xmlns:serif="http://www.serif.com/" style="fill-rule:evenodd;clip-rule:evenodd;stroke-linejoin:round;stroke-miterlimit:2;">
    <g transform="matrix(33.3333,0,0,33.3333,0,0)">
        <path d="M8,5.25L19,5.25C19.967,5.25 20.75,6.034 20.75,7L20.75,17C20.75,17.967 19.967,18.75 19,18.75L8,18.75C7.801,18.75 7.61,18.671 7.47,18.53L1.47,12.53C1.177,12.237 1.177,11.763 1.47,11.47L7.47,5.47C7.61,5.329 7.801,5.25 8,5.25ZM8.311,6.75L3.061,12L8.311,17.25L19,17.25C19.138,17.25 19.25,17.138 19.25,17L19.25,7C19.25,6.862 19.138,6.75 19,6.75L8.311,6.75ZM11.939,12L9.47,9.53C9.177,9.238 9.177,8.762 9.47,8.47C9.763,8.177 10.238,8.177 10.531,8.47L13,10.939L15.47,8.47C15.762,8.177 16.238,8.177 16.53,8.47C16.823,8.762 16.823,9.238 16.53,9.53L14.061,12L16.531,14.47C16.823,14.762 16.823,15.238 16.531,15.53C16.238,15.823 15.763,15.823 15.47,15.53L13,13.061L10.53,15.53C10.238,15.823 9.762,15.823 9.47,15.53C9.177,15.238 9.177,14.762 9.47,14.47L11.939,12Z"/>
    </g>
</svg>
