<?xml version="1.0" encoding="UTF-8" standalone="no"?>
<!DOCTYPE svg PUBLIC "-//W3C//DTD SVG 1.1//EN" "http://www.w3.org/Graphics/SVG/1.1/DTD/svg11.dtd">
<svg width="100%" height="100%" viewBox="0 0 800 800" version="1.1" xmlns="http://www.w3.org/2000/svg" xmlns:xlink="http://www.w3.org/1999/xlink" xml:space="preserve" xmlns:serif="http://www.serif.com/" style="fill-rule:evenodd;clip-rule:evenodd;stroke-linejoin:round;stroke-miterlimit:2;">
    <g transform="matrix(33.3333,0,0,33.3333,0,0)">
        <path d="M11.25,13.189L11.25,3C11.25,2.586 11.586,2.25 12,2.25C12.414,2.25 12.75,2.586 12.75,3L12.75,13.189L15.47,10.47C15.762,10.177 16.238,10.177 16.53,10.47C16.823,10.762 16.823,11.238 16.53,11.53L12.53,15.53C12.458,15.602 12.376,15.656 12.287,15.693C12.199,15.73 12.102,15.75 12,15.75C11.898,15.75 11.801,15.73 11.713,15.693C11.624,15.656 11.542,15.602 11.47,15.53L7.47,11.53C7.177,11.238 7.177,10.762 7.47,10.47C7.762,10.177 8.238,10.177 8.53,10.47L11.25,13.189ZM19.25,15C19.25,14.586 19.586,14.25 20,14.25C20.414,14.25 20.75,14.586 20.75,15L20.75,18C20.75,19.519 19.519,20.75 18,20.75L6,20.75C4.481,20.75 3.25,19.519 3.25,18L3.25,15C3.25,14.586 3.586,14.25 4,14.25C4.414,14.25 4.75,14.586 4.75,15L4.75,18C4.75,18.69 5.31,19.25 6,19.25L18,19.25C18.69,19.25 19.25,18.69 19.25,18L19.25,15Z"/>
    </g>
</svg>
