<?xml version="1.0" encoding="UTF-8" standalone="no"?>
<!DOCTYPE svg PUBLIC "-//W3C//DTD SVG 1.1//EN" "http://www.w3.org/Graphics/SVG/1.1/DTD/svg11.dtd">
<svg width="100%" height="100%" viewBox="0 0 800 800" version="1.1" xmlns="http://www.w3.org/2000/svg" xmlns:xlink="http://www.w3.org/1999/xlink" xml:space="preserve" xmlns:serif="http://www.serif.com/" style="fill-rule:evenodd;clip-rule:evenodd;stroke-linejoin:round;stroke-miterlimit:2;">
    <g transform="matrix(33.3333,0,0,33.3333,0,0)">
        <path d="M16.47,2.47C16.763,2.177 17.237,2.177 17.53,2.47L21.53,6.47C21.823,6.763 21.823,7.237 21.53,7.53L8.53,20.53C8.39,20.671 8.199,20.75 8,20.75L4,20.75C3.586,20.75 3.25,20.414 3.25,20L3.25,16C3.25,15.801 3.329,15.61 3.47,15.47L16.47,2.47ZM16.939,10L14,7.061L4.75,16.311L4.75,19.25L7.689,19.25L16.939,10ZM15.061,6L18,8.939L19.939,7L17,4.061L15.061,6Z"/>
    </g>
</svg>
