<?xml version="1.0" encoding="UTF-8" standalone="no"?>
<!DOCTYPE svg PUBLIC "-//W3C//DTD SVG 1.1//EN" "http://www.w3.org/Graphics/SVG/1.1/DTD/svg11.dtd">
<svg width="100%" height="100%" viewBox="0 0 800 800" version="1.1" xmlns="http://www.w3.org/2000/svg" xmlns:xlink="http://www.w3.org/1999/xlink" xml:space="preserve" xmlns:serif="http://www.serif.com/" style="fill-rule:evenodd;clip-rule:evenodd;stroke-linejoin:round;stroke-miterlimit:2;">
    <g transform="matrix(33.3333,0,0,33.3333,0,0)">
        <path d="M18.189,4.75L14,4.75C13.586,4.75 13.25,4.414 13.25,4C13.25,3.586 13.586,3.25 14,3.25L20,3.25C20.102,3.25 20.199,3.27 20.287,3.307C20.375,3.344 20.458,3.398 20.53,3.47C20.602,3.542 20.656,3.624 20.693,3.713C20.73,3.801 20.75,3.898 20.75,4L20.75,10C20.75,10.414 20.414,10.75 20,10.75C19.586,10.75 19.25,10.414 19.25,10L19.25,5.811L10.53,14.53C10.238,14.823 9.762,14.823 9.47,14.53C9.177,14.238 9.177,13.762 9.47,13.47L18.189,4.75ZM10,3.25C10.414,3.25 10.75,3.586 10.75,4C10.75,4.414 10.414,4.75 10,4.75L4.75,4.75L4.75,19.25L19.25,19.25L19.25,14C19.25,13.586 19.586,13.25 20,13.25C20.414,13.25 20.75,13.586 20.75,14L20.75,20C20.75,20.414 20.414,20.75 20,20.75L4,20.75C3.586,20.75 3.25,20.414 3.25,20L3.25,4C3.25,3.586 3.586,3.25 4,3.25L10,3.25Z"/>
    </g>
</svg>
