<?xml version="1.0" encoding="UTF-8" standalone="no"?>
<!DOCTYPE svg PUBLIC "-//W3C//DTD SVG 1.1//EN" "http://www.w3.org/Graphics/SVG/1.1/DTD/svg11.dtd">
<svg width="100%" height="100%" viewBox="0 0 800 800" version="1.1" xmlns="http://www.w3.org/2000/svg" xmlns:xlink="http://www.w3.org/1999/xlink" xml:space="preserve" xmlns:serif="http://www.serif.com/" style="fill-rule:evenodd;clip-rule:evenodd;stroke-linejoin:round;stroke-miterlimit:2;">
    <g transform="matrix(1.64933,0,0,1.64933,0.614463,0.614439)">
        <path d="M175.346,421.393L175.345,421.385C175.264,420.964 175.262,420.465 175.262,420.047L175.262,391.879L147.253,396.053L147.251,396.053C146.667,396.136 146.167,396.137 145.583,396.137C122.91,396.137 104.493,377.72 104.493,355.047L104.493,313.831L102.195,313.831C90.62,313.831 81.187,309.137 76.261,300.928C71.336,292.719 71.567,282.211 76.902,271.951L104.493,219.204L104.493,198.397C104.493,168.682 113.041,139.943 129.242,115.113C144.954,91.016 167.016,71.884 193.067,59.754C213.582,50.066 235.563,45.1 258.439,45.1C342.862,45.1 411.573,113.811 411.573,198.234C411.573,239.304 394.918,278.912 365.586,307.643L365.586,389.578C365.586,400.608 357.026,410.814 346.161,412.707L198.693,438.87C197.374,439.117 196.138,439.2 194.902,439.2C184.428,439.2 176.181,431.616 175.346,421.393ZM202.252,79.705C202.229,79.716 202.206,79.727 202.184,79.737C202.232,79.842 202.338,79.912 202.458,79.912L202.458,79.901C202.362,79.874 202.284,79.802 202.252,79.705ZM202.539,79.912L202.525,79.912C156.678,101.244 127.036,147.593 127.036,198.153L127.036,221.716C127.036,223.552 126.617,225.389 125.782,226.975L96.857,282.144L96.856,282.146C95.715,284.285 95.282,286.023 95.242,287.278C95.217,288.061 95.343,288.645 95.551,289.001C95.756,289.353 96.206,289.719 96.901,290.044C98.026,290.569 99.768,290.963 102.195,290.963L115.602,290.963C121.864,290.963 126.873,295.972 126.873,302.234L126.873,354.722C126.873,364.706 134.773,372.854 144.673,373.268L184.701,367.341L184.703,367.341C185.286,367.258 185.787,367.257 186.37,367.257C189.041,367.257 191.629,368.256 193.714,370.008C196.22,372.097 197.642,375.27 197.642,378.527L197.722,415.949L342.122,390.423C342.282,390.348 342.464,390.165 342.622,389.968C342.781,389.768 342.918,389.55 342.962,389.382L342.962,302.722C342.962,299.633 344.296,296.627 346.633,294.456L346.635,294.455C373.547,269.812 389.03,234.712 389.03,198.234C389.03,126.251 330.422,67.643 258.439,67.643C238.903,67.643 220.096,71.777 202.667,79.884C202.627,79.902 202.583,79.912 202.539,79.912ZM165.57,209.713C173.7,209.713 180.336,216.349 180.336,224.478C180.336,232.607 173.7,239.243 165.57,239.243C157.441,239.243 150.805,232.607 150.805,224.478C150.805,216.349 157.441,209.713 165.57,209.713Z"/>
    </g>
</svg>
