<?xml version="1.0" encoding="UTF-8" standalone="no"?>
<!DOCTYPE svg PUBLIC "-//W3C//DTD SVG 1.1//EN" "http://www.w3.org/Graphics/SVG/1.1/DTD/svg11.dtd">
<svg width="100%" height="100%" viewBox="0 0 800 800" version="1.1" xmlns="http://www.w3.org/2000/svg" xmlns:xlink="http://www.w3.org/1999/xlink" xml:space="preserve" xmlns:serif="http://www.serif.com/" style="fill-rule:evenodd;clip-rule:evenodd;stroke-linejoin:round;stroke-miterlimit:2;">
    <g transform="matrix(33.3333,0,0,33.3333,0,0)">
        <path d="M9.456,3.754C10.109,3.993 10.801,4.25 12,4.25C13.199,4.25 13.89,3.993 14.544,3.754C15.263,3.491 15.946,3.25 17,3.25C19.386,3.25 20.75,5.518 20.75,8.5C20.75,10.225 20.318,11.29 19.858,12.397C19.632,12.943 19.398,13.501 19.228,14.182C19.087,14.745 19.035,15.561 18.975,16.428C18.879,17.806 18.758,19.298 18.367,20.273C17.99,21.216 17.366,21.75 16.5,21.75C15.894,21.75 15.386,21.427 14.993,20.801C14.614,20.197 14.333,19.244 14.051,18.23C13.801,17.333 13.545,16.382 13.149,15.659C12.872,15.153 12.544,14.75 12,14.75C11.456,14.75 11.128,15.153 10.851,15.659C10.455,16.382 10.199,17.333 9.949,18.23C9.667,19.244 9.386,20.197 9.007,20.801C8.614,21.427 8.106,21.75 7.5,21.75C6.634,21.75 6.01,21.216 5.633,20.273C5.242,19.298 5.121,17.806 5.025,16.428C4.965,15.561 4.913,14.745 4.772,14.182C4.602,13.501 4.368,12.943 4.142,12.397C3.682,11.29 3.25,10.225 3.25,8.5C3.25,5.518 4.614,3.25 7,3.25C8.054,3.25 8.737,3.491 9.456,3.754ZM8.941,5.163C8.372,4.955 7.834,4.75 7,4.75C6.281,4.75 5.748,5.121 5.389,5.706C4.951,6.417 4.75,7.406 4.75,8.5C4.75,9.972 5.135,10.877 5.527,11.822C5.78,12.432 6.037,13.057 6.228,13.818C6.385,14.447 6.454,15.356 6.521,16.323C6.606,17.537 6.681,18.857 7.025,19.716C7.139,19.999 7.24,20.25 7.5,20.25C7.554,20.25 7.585,20.202 7.624,20.157C7.713,20.056 7.789,19.923 7.863,19.772C8.111,19.257 8.3,18.558 8.504,17.827C8.848,16.593 9.234,15.284 9.857,14.427C10.39,13.694 11.085,13.25 12,13.25C12.915,13.25 13.61,13.694 14.143,14.427C14.766,15.284 15.152,16.593 15.496,17.827C15.7,18.558 15.889,19.257 16.137,19.772C16.211,19.923 16.287,20.056 16.376,20.157C16.415,20.202 16.446,20.25 16.5,20.25C16.76,20.25 16.861,19.999 16.975,19.716C17.319,18.857 17.394,17.537 17.479,16.323C17.546,15.356 17.615,14.447 17.772,13.818C17.963,13.057 18.22,12.432 18.473,11.822L18.473,11.822C18.865,10.877 19.25,9.972 19.25,8.5C19.25,7.406 19.049,6.417 18.611,5.706C18.252,5.121 17.719,4.75 17,4.75C16.166,4.75 15.628,4.955 15.059,5.163C14.274,5.45 13.441,5.75 12,5.75C10.559,5.75 9.726,5.45 8.941,5.163Z"/>
    </g>
</svg>
