<?xml version="1.0" encoding="UTF-8" standalone="no"?>
<!DOCTYPE svg PUBLIC "-//W3C//DTD SVG 1.1//EN" "http://www.w3.org/Graphics/SVG/1.1/DTD/svg11.dtd">
<svg width="100%" height="100%" viewBox="0 0 800 800" version="1.1" xmlns="http://www.w3.org/2000/svg" xmlns:xlink="http://www.w3.org/1999/xlink" xml:space="preserve" xmlns:serif="http://www.serif.com/" style="fill-rule:evenodd;clip-rule:evenodd;stroke-linejoin:round;stroke-miterlimit:2;">
    <g transform="matrix(33.3333,0,0,33.3333,0,0)">
        <path d="M3.277,15.806C3.259,15.707 3.25,15.605 3.25,15.5L3.25,6.5C3.25,5.533 4.034,4.75 5,4.75L19,4.75C19.967,4.75 20.75,5.534 20.75,6.5L20.75,15.5C20.75,15.604 20.741,15.707 20.723,15.806C21.599,16.019 22.25,16.808 22.25,17.75C22.25,18.855 21.355,19.75 20.25,19.75L3.75,19.75C2.645,19.75 1.75,18.855 1.75,17.75C1.75,16.808 2.401,16.019 3.277,15.806ZM3.75,17.25C3.474,17.25 3.25,17.474 3.25,17.75C3.25,18.026 3.474,18.25 3.75,18.25L20.25,18.25C20.526,18.25 20.75,18.026 20.75,17.75C20.75,17.474 20.526,17.25 20.25,17.25L3.75,17.25ZM5,15.75L19,15.75C19.138,15.75 19.25,15.638 19.25,15.5L19.25,6.5C19.25,6.362 19.138,6.25 19,6.25L5,6.25C4.862,6.25 4.75,6.362 4.75,6.5L4.75,15.5C4.75,15.638 4.862,15.75 5,15.75Z"/>
    </g>
</svg>
