<?xml version="1.0" encoding="UTF-8" standalone="no"?>
<!DOCTYPE svg PUBLIC "-//W3C//DTD SVG 1.1//EN" "http://www.w3.org/Graphics/SVG/1.1/DTD/svg11.dtd">
<svg width="100%" height="100%" viewBox="0 0 800 800" version="1.1" xmlns="http://www.w3.org/2000/svg" xmlns:xlink="http://www.w3.org/1999/xlink" xml:space="preserve" xmlns:serif="http://www.serif.com/" style="fill-rule:evenodd;clip-rule:evenodd;stroke-linejoin:round;stroke-miterlimit:2;">
    <g transform="matrix(33.3333,0,0,33.3333,0,0)">
        <path d="M3.307,11.713C3.344,11.624 3.398,11.542 3.47,11.47L7.47,7.47C7.762,7.177 8.238,7.177 8.53,7.47C8.823,7.762 8.823,8.238 8.53,8.53L5.811,11.25L16,11.25C16.414,11.25 16.75,11.586 16.75,12C16.75,12.414 16.414,12.75 16,12.75L5.811,12.75L8.53,15.47C8.823,15.762 8.823,16.238 8.53,16.53C8.238,16.823 7.762,16.823 7.47,16.53L3.47,12.53C3.398,12.458 3.344,12.376 3.307,12.287C3.27,12.199 3.25,12.102 3.25,12C3.25,11.898 3.27,11.801 3.307,11.713ZM15,4.75C14.586,4.75 14.25,4.414 14.25,4C14.25,3.586 14.586,3.25 15,3.25L18,3.25C19.519,3.25 20.75,4.481 20.75,6L20.75,18C20.75,19.519 19.519,20.75 18,20.75L15,20.75C14.586,20.75 14.25,20.414 14.25,20C14.25,19.586 14.586,19.25 15,19.25L18,19.25C18.69,19.25 19.25,18.69 19.25,18L19.25,6C19.25,5.31 18.69,4.75 18,4.75L15,4.75Z"/>
    </g>
</svg>
