<?xml version="1.0" encoding="UTF-8" standalone="no"?>
<!DOCTYPE svg PUBLIC "-//W3C//DTD SVG 1.1//EN" "http://www.w3.org/Graphics/SVG/1.1/DTD/svg11.dtd">
<svg width="100%" height="100%" viewBox="0 0 800 800" version="1.1" xmlns="http://www.w3.org/2000/svg" xmlns:xlink="http://www.w3.org/1999/xlink" xml:space="preserve" xmlns:serif="http://www.serif.com/" style="fill-rule:evenodd;clip-rule:evenodd;stroke-linejoin:round;stroke-miterlimit:2;">
    <g transform="matrix(33.3333,0,0,33.3333,0,0)">
        <path d="M15.75,17.75L15.75,18C15.75,18.492 15.653,18.98 15.465,19.435C15.276,19.89 15,20.303 14.652,20.652C14.303,21 13.89,21.276 13.435,21.465C12.98,21.653 12.492,21.75 12,21.75C11.508,21.75 11.02,21.653 10.565,21.465C10.11,21.276 9.697,21 9.348,20.652L9.348,20.652C9,20.303 8.724,19.89 8.535,19.435L8.535,19.435C8.347,18.98 8.25,18.492 8.25,18L8.25,17.75L4,17.75C3.74,17.75 3.499,17.615 3.362,17.394C3.225,17.173 3.213,16.897 3.329,16.665C3.329,16.665 5.25,12.833 5.25,9C5.25,5.324 8.323,2.25 12,2.25C15.676,2.25 18.75,5.324 18.75,9C18.75,11.897 20.696,16.721 20.696,16.721C20.789,16.953 20.761,17.214 20.621,17.42C20.482,17.627 20.249,17.75 20,17.75L15.75,17.75ZM5.15,16.25L18.921,16.25C18.327,14.582 17.25,11.247 17.25,9C17.25,6.14 14.859,3.75 12,3.75C9.141,3.75 6.75,6.14 6.75,9C6.75,11.87 5.764,14.741 5.15,16.25ZM14.25,17.75L9.75,17.75L9.75,18C9.75,18.295 9.808,18.588 9.921,18.861C10.034,19.134 10.2,19.382 10.409,19.591C10.618,19.8 10.866,19.966 11.139,20.079L11.139,20.079C11.412,20.192 11.705,20.25 12,20.25C12.295,20.25 12.588,20.192 12.861,20.079L12.861,20.079C13.134,19.966 13.382,19.8 13.591,19.591C13.8,19.382 13.966,19.134 14.079,18.861L14.079,18.861C14.192,18.588 14.25,18.295 14.25,18L14.25,17.75Z"/>
    </g>
</svg>
