<?xml version="1.0" encoding="UTF-8" standalone="no"?>
<!DOCTYPE svg PUBLIC "-//W3C//DTD SVG 1.1//EN" "http://www.w3.org/Graphics/SVG/1.1/DTD/svg11.dtd">
<svg width="100%" height="100%" viewBox="0 0 800 800" version="1.1" xmlns="http://www.w3.org/2000/svg" xmlns:xlink="http://www.w3.org/1999/xlink" xml:space="preserve" xmlns:serif="http://www.serif.com/" style="fill-rule:evenodd;clip-rule:evenodd;stroke-linejoin:round;stroke-miterlimit:2;">
    <g transform="matrix(33.3333,0,0,33.3333,0,0)">
        <path d="M7.25,8.25L7.25,4C7.25,3.034 8.034,2.25 9,2.25L15,2.25C15.967,2.25 16.75,3.034 16.75,4L16.75,8.25L20,8.25C20.414,8.25 20.75,8.586 20.75,9L20.75,18C20.75,18.414 20.414,18.75 20,18.75L16.75,18.75L16.75,21C16.75,21.414 16.414,21.75 16,21.75L8,21.75C7.586,21.75 7.25,21.414 7.25,21L7.25,18.75L4,18.75C3.586,18.75 3.25,18.414 3.25,18L3.25,9C3.25,8.586 3.586,8.25 4,8.25L7.25,8.25ZM7.25,17.25L7.25,15C7.25,14.586 7.586,14.25 8,14.25L16,14.25C16.414,14.25 16.75,14.586 16.75,15L16.75,17.25L19.25,17.25L19.25,9.75L4.75,9.75L4.75,17.25L7.25,17.25ZM15.25,20.25L15.25,15.75L8.75,15.75L8.75,20.25L15.25,20.25ZM8.75,8.25L15.25,8.25L15.25,4C15.25,3.862 15.138,3.75 15,3.75L9,3.75C8.862,3.75 8.75,3.862 8.75,4L8.75,8.25Z"/>
    </g>
</svg>
