<?xml version="1.0" encoding="UTF-8" standalone="no"?>
<!DOCTYPE svg PUBLIC "-//W3C//DTD SVG 1.1//EN" "http://www.w3.org/Graphics/SVG/1.1/DTD/svg11.dtd">
<svg width="100%" height="100%" viewBox="0 0 800 800" version="1.1" xmlns="http://www.w3.org/2000/svg" xmlns:xlink="http://www.w3.org/1999/xlink" xml:space="preserve" xmlns:serif="http://www.serif.com/" style="fill-rule:evenodd;clip-rule:evenodd;stroke-linejoin:round;stroke-miterlimit:2;">
    <g transform="matrix(33.3333,0,0,33.3333,0,0)">
        <path d="M12,2.25C17.385,2.25 21.75,6.615 21.75,12C21.75,17.385 17.385,21.75 12,21.75C6.615,21.75 2.25,17.385 2.25,12C2.25,6.615 6.615,2.25 12,2.25ZM3.784,11.25L7.27,11.25C7.451,7.855 8.838,5.439 9.985,3.998C6.637,4.838 4.101,7.724 3.784,11.25ZM9.985,20.002C8.838,18.561 7.451,16.145 7.27,12.75L3.784,12.75C4.101,16.276 6.637,19.162 9.985,20.002ZM20.216,12.75L16.73,12.75C16.549,16.145 15.162,18.561 14.015,20.002C17.363,19.162 19.899,16.276 20.216,12.75ZM14.015,3.998C15.162,5.439 16.549,7.855 16.73,11.25L20.216,11.25C19.899,7.724 17.363,4.838 14.015,3.998ZM8.773,11.25L15.227,11.25C14.99,7.319 12.928,4.899 12,3.999C11.072,4.899 9.01,7.319 8.773,11.25ZM12,20.001C12.928,19.101 14.99,16.681 15.227,12.75L8.773,12.75C9.01,16.681 11.072,19.101 12,20.001Z"/>
    </g>
</svg>
