<?xml version="1.0" encoding="UTF-8" standalone="no"?>
<!DOCTYPE svg PUBLIC "-//W3C//DTD SVG 1.1//EN" "http://www.w3.org/Graphics/SVG/1.1/DTD/svg11.dtd">
<svg width="100%" height="100%" viewBox="0 0 800 800" version="1.1" xmlns="http://www.w3.org/2000/svg" xmlns:xlink="http://www.w3.org/1999/xlink" xml:space="preserve" xmlns:serif="http://www.serif.com/" style="fill-rule:evenodd;clip-rule:evenodd;stroke-linejoin:round;stroke-miterlimit:2;">
    <g transform="matrix(33.3333,0,0,33.3333,0,0)">
        <path d="M6,20.75C4.481,20.75 3.25,19.519 3.25,18L3.25,6C3.25,4.481 4.481,3.25 6,3.25L14.172,3.25C14.901,3.25 15.6,3.54 16.116,4.055L19.945,7.884C20.46,8.4 20.75,9.099 20.75,9.828L20.75,18C20.75,19.519 19.519,20.75 18,20.75L6,20.75ZM8.25,19.25L8.25,15C8.25,14.586 8.586,14.25 9,14.25L15,14.25C15.414,14.25 15.75,14.586 15.75,15L15.75,19.25L18,19.25C18.69,19.25 19.25,18.69 19.25,18L19.25,9.828C19.25,9.497 19.118,9.179 18.884,8.945L15.055,5.116C14.821,4.882 14.503,4.75 14.172,4.75L6,4.75C5.31,4.75 4.75,5.31 4.75,6L4.75,18C4.75,18.69 5.31,19.25 6,19.25L8.25,19.25ZM14.25,19.25L14.25,15.75L9.75,15.75L9.75,19.25L14.25,19.25Z"/>
    </g>
</svg>
