<?xml version="1.0" encoding="UTF-8" standalone="no"?>
<!DOCTYPE svg PUBLIC "-//W3C//DTD SVG 1.1//EN" "http://www.w3.org/Graphics/SVG/1.1/DTD/svg11.dtd">
<svg width="100%" height="100%" viewBox="0 0 800 800" version="1.1" xmlns="http://www.w3.org/2000/svg" xmlns:xlink="http://www.w3.org/1999/xlink" xml:space="preserve" xmlns:serif="http://www.serif.com/" style="fill-rule:evenodd;clip-rule:evenodd;stroke-linejoin:round;stroke-miterlimit:2;">
    <g transform="matrix(33.3333,0,0,33.3333,0,0)">
        <path d="M15.53,17.53C15.238,17.823 14.762,17.823 14.47,17.53C14.177,17.238 14.177,16.762 14.47,16.47L18.939,12L14.47,7.53C14.177,7.238 14.177,6.762 14.47,6.47C14.762,6.177 15.238,6.177 15.53,6.47L20.53,11.47C20.823,11.763 20.823,12.237 20.53,12.53L15.53,17.53ZM8.47,6.47C8.762,6.177 9.238,6.177 9.53,6.47C9.823,6.762 9.823,7.238 9.53,7.53L5.061,12L9.53,16.47C9.823,16.762 9.823,17.238 9.53,17.53C9.238,17.823 8.762,17.823 8.47,17.53L3.47,12.53C3.177,12.237 3.177,11.763 3.47,11.47L8.47,6.47Z"/>
    </g>
</svg>
