<?xml version="1.0" encoding="UTF-8" standalone="no"?>
<!DOCTYPE svg PUBLIC "-//W3C//DTD SVG 1.1//EN" "http://www.w3.org/Graphics/SVG/1.1/DTD/svg11.dtd">
<svg width="100%" height="100%" viewBox="0 0 800 800" version="1.1" xmlns="http://www.w3.org/2000/svg" xmlns:xlink="http://www.w3.org/1999/xlink" xml:space="preserve" xmlns:serif="http://www.serif.com/" style="fill-rule:evenodd;clip-rule:evenodd;stroke-linejoin:round;stroke-miterlimit:2;">
    <g transform="matrix(33.3333,0,0,33.3333,0,0)">
        <path d="M11,2.25L13,2.25C13.967,2.25 14.75,3.034 14.75,4L14.75,4.569C14.75,4.695 14.853,4.791 14.97,4.84C15.085,4.887 15.222,4.889 15.31,4.801L15.712,4.399C16.396,3.715 17.504,3.715 18.187,4.399L19.601,5.813C20.285,6.496 20.285,7.604 19.601,8.288L19.199,8.69C19.111,8.778 19.113,8.915 19.16,9.03C19.209,9.147 19.305,9.25 19.431,9.25L20,9.25C20.967,9.25 21.75,10.033 21.75,11L21.75,13C21.75,13.967 20.967,14.75 20,14.75L19.431,14.75C19.305,14.75 19.209,14.853 19.16,14.97C19.113,15.085 19.111,15.222 19.199,15.31L19.601,15.712C20.285,16.396 20.285,17.504 19.601,18.187L18.187,19.601C17.504,20.285 16.396,20.285 15.712,19.601L15.31,19.199C15.222,19.111 15.085,19.113 14.97,19.16C14.853,19.209 14.75,19.305 14.75,19.431L14.75,20C14.75,20.967 13.967,21.75 13,21.75L11,21.75C10.033,21.75 9.25,20.967 9.25,20L9.25,19.431C9.25,19.305 9.147,19.209 9.03,19.16C8.915,19.113 8.778,19.111 8.69,19.199L8.288,19.601C7.604,20.285 6.496,20.285 5.813,19.601L4.399,18.187C3.715,17.504 3.715,16.396 4.399,15.712L4.801,15.31C4.889,15.222 4.887,15.085 4.84,14.97C4.791,14.853 4.695,14.75 4.569,14.75L4,14.75C3.034,14.75 2.25,13.967 2.25,13L2.25,11C2.25,10.033 3.034,9.25 4,9.25L4.569,9.25C4.695,9.25 4.791,9.147 4.84,9.03C4.887,8.915 4.889,8.778 4.801,8.69L4.399,8.288C3.715,7.604 3.715,6.496 4.399,5.813L5.813,4.399C6.496,3.715 7.604,3.715 8.288,4.399L8.69,4.801C8.778,4.889 8.915,4.887 9.03,4.84C9.147,4.791 9.25,4.695 9.25,4.569L9.25,4C9.25,3.034 10.033,2.25 11,2.25ZM11,3.75C10.862,3.75 10.75,3.862 10.75,4L10.75,4.569C10.75,5.298 10.279,5.945 9.605,6.225C8.93,6.505 8.147,6.379 7.629,5.862L7.227,5.459C7.129,5.362 6.971,5.362 6.873,5.459L5.459,6.873C5.362,6.971 5.362,7.129 5.459,7.227L5.862,7.629C6.379,8.147 6.505,8.93 6.225,9.605C5.945,10.279 5.298,10.75 4.569,10.75L4,10.75C3.862,10.75 3.75,10.862 3.75,11L3.75,13C3.75,13.138 3.862,13.25 4,13.25L4.569,13.25C5.298,13.25 5.945,13.721 6.225,14.395C6.505,15.07 6.379,15.853 5.862,16.371L5.459,16.773C5.362,16.871 5.362,17.029 5.459,17.126L6.873,18.541C6.971,18.638 7.129,18.638 7.227,18.541L7.629,18.139C8.146,17.621 8.93,17.495 9.605,17.775C10.279,18.055 10.75,18.702 10.75,19.431L10.75,20C10.75,20.138 10.862,20.25 11,20.25L13,20.25C13.138,20.25 13.25,20.138 13.25,20L13.25,19.431C13.25,18.702 13.721,18.055 14.395,17.775L14.395,17.775C15.07,17.495 15.853,17.621 16.371,18.138L16.773,18.541C16.871,18.638 17.029,18.638 17.126,18.541L18.541,17.126C18.638,17.029 18.638,16.871 18.541,16.773L18.139,16.371C17.621,15.853 17.495,15.07 17.775,14.395L17.775,14.395C18.055,13.721 18.702,13.25 19.431,13.25L20,13.25C20.138,13.25 20.25,13.138 20.25,13L20.25,11C20.25,10.862 20.138,10.75 20,10.75L19.431,10.75C18.702,10.75 18.055,10.279 17.775,9.605C17.495,8.93 17.621,8.146 18.138,7.629L18.541,7.227C18.638,7.129 18.638,6.971 18.541,6.873L17.126,5.459C17.029,5.362 16.871,5.362 16.773,5.459L16.371,5.862C15.853,6.379 15.07,6.505 14.395,6.225C13.721,5.945 13.25,5.298 13.25,4.569L13.25,4C13.25,3.862 13.138,3.75 13,3.75L11,3.75ZM14.75,12C14.75,13.519 13.519,14.75 12,14.75C10.481,14.75 9.25,13.519 9.25,12C9.25,10.481 10.481,9.25 12,9.25C13.519,9.25 14.75,10.481 14.75,12ZM13.25,12C13.25,11.31 12.69,10.75 12,10.75C11.31,10.75 10.75,11.31 10.75,12C10.75,12.69 11.31,13.25 12,13.25C12.69,13.25 13.25,12.69 13.25,12Z"/>
    </g>
</svg>
