<?xml version="1.0" encoding="UTF-8" standalone="no"?>
<!DOCTYPE svg PUBLIC "-//W3C//DTD SVG 1.1//EN" "http://www.w3.org/Graphics/SVG/1.1/DTD/svg11.dtd">
<svg width="100%" height="100%" viewBox="0 0 800 800" version="1.1" xmlns="http://www.w3.org/2000/svg" xmlns:xlink="http://www.w3.org/1999/xlink" xml:space="preserve" xmlns:serif="http://www.serif.com/" style="fill-rule:evenodd;clip-rule:evenodd;stroke-linejoin:round;stroke-miterlimit:2;">
    <g transform="matrix(33.3333,0,0,33.3333,0,0)">
        <path d="M12,2.25C17.385,2.25 21.75,6.615 21.75,12C21.75,14.692 20.659,17.13 18.894,18.894C17.13,20.659 14.692,21.75 12,21.75C6.615,21.75 2.25,17.385 2.25,12C2.25,6.615 6.615,2.25 12,2.25ZM3.784,11.25L11.25,11.25L11.25,3.784C7.292,4.14 4.14,7.292 3.784,11.25ZM17.279,18.34L11.689,12.75L3.784,12.75C4.163,16.955 7.696,20.25 12,20.25C14.008,20.25 15.849,19.533 17.279,18.34ZM12.75,3.784L12.75,11.689L18.34,17.279C19.533,15.849 20.25,14.008 20.25,12C20.25,7.696 16.955,4.163 12.75,3.784Z"/>
    </g>
</svg>
