<?xml version="1.0" encoding="UTF-8" standalone="no"?>
<!DOCTYPE svg PUBLIC "-//W3C//DTD SVG 1.1//EN" "http://www.w3.org/Graphics/SVG/1.1/DTD/svg11.dtd">
<svg width="100%" height="100%" viewBox="0 0 800 800" version="1.1" xmlns="http://www.w3.org/2000/svg" xmlns:xlink="http://www.w3.org/1999/xlink" xml:space="preserve" xmlns:serif="http://www.serif.com/" style="fill-rule:evenodd;clip-rule:evenodd;stroke-linejoin:round;stroke-miterlimit:2;">
    <g transform="matrix(33.3333,0,0,33.3333,0,0)">
        <path d="M3,12.75C2.586,12.75 2.25,12.414 2.25,12C2.25,11.586 2.586,11.25 3,11.25L5,11.25C5.414,11.25 5.75,11.586 5.75,12C5.75,12.414 5.414,12.75 5,12.75L3,12.75ZM5.53,19.53C5.238,19.823 4.762,19.823 4.47,19.53C4.177,19.238 4.177,18.762 4.47,18.47L6.47,16.47C6.762,16.177 7.238,16.177 7.53,16.47C7.823,16.762 7.823,17.238 7.53,17.53L5.53,19.53ZM11.25,19C11.25,18.586 11.586,18.25 12,18.25C12.414,18.25 12.75,18.586 12.75,19L12.75,21C12.75,21.414 12.414,21.75 12,21.75C11.586,21.75 11.25,21.414 11.25,21L11.25,19ZM16.47,17.53C16.177,17.238 16.177,16.762 16.47,16.47C16.762,16.177 17.238,16.177 17.53,16.47L19.53,18.47C19.823,18.762 19.823,19.238 19.53,19.53C19.238,19.823 18.762,19.823 18.47,19.53L16.47,17.53ZM4.47,5.53C4.177,5.238 4.177,4.762 4.47,4.47C4.762,4.177 5.238,4.177 5.53,4.47L7.53,6.47C7.823,6.762 7.823,7.238 7.53,7.53C7.238,7.823 6.762,7.823 6.47,7.53L4.47,5.53ZM19,12.75C18.586,12.75 18.25,12.414 18.25,12C18.25,11.586 18.586,11.25 19,11.25L21,11.25C21.414,11.25 21.75,11.586 21.75,12C21.75,12.414 21.414,12.75 21,12.75L19,12.75ZM17.53,7.53C17.238,7.823 16.762,7.823 16.47,7.53C16.177,7.238 16.177,6.762 16.47,6.47L18.47,4.47C18.762,4.177 19.238,4.177 19.53,4.47C19.823,4.762 19.823,5.238 19.53,5.53L17.53,7.53ZM11.25,3C11.25,2.586 11.586,2.25 12,2.25C12.414,2.25 12.75,2.586 12.75,3L12.75,5C12.75,5.414 12.414,5.75 12,5.75C11.586,5.75 11.25,5.414 11.25,5L11.25,3ZM15.75,12C15.75,14.071 14.071,15.75 12,15.75C9.929,15.75 8.25,14.071 8.25,12C8.25,9.929 9.929,8.25 12,8.25C14.071,8.25 15.75,9.929 15.75,12ZM14.25,12C14.25,10.757 13.243,9.75 12,9.75C10.757,9.75 9.75,10.757 9.75,12C9.75,13.243 10.757,14.25 12,14.25C13.243,14.25 14.25,13.243 14.25,12Z"/>
    </g>
</svg>
