<?xml version="1.0" encoding="UTF-8" standalone="no"?>
<!DOCTYPE svg PUBLIC "-//W3C//DTD SVG 1.1//EN" "http://www.w3.org/Graphics/SVG/1.1/DTD/svg11.dtd">
<svg width="100%" height="100%" viewBox="0 0 800 800" version="1.1" xmlns="http://www.w3.org/2000/svg" xmlns:xlink="http://www.w3.org/1999/xlink" xml:space="preserve" xmlns:serif="http://www.serif.com/" style="fill-rule:evenodd;clip-rule:evenodd;stroke-linejoin:round;stroke-miterlimit:2;">
    <g transform="matrix(33.3333,0,0,33.3333,0,0)">
        <path d="M8.25,5.25L8.25,5C8.25,3.481 9.481,2.25 11,2.25L13,2.25C14.519,2.25 15.75,3.481 15.75,5L15.75,5.25L20,5.25C20.414,5.25 20.75,5.586 20.75,6C20.75,6.414 20.414,6.75 20,6.75L18.75,6.75L18.75,18C18.75,19.519 17.519,20.75 16,20.75L8,20.75C6.481,20.75 5.25,19.519 5.25,18L5.25,6.75L4,6.75C3.586,6.75 3.25,6.414 3.25,6C3.25,5.586 3.586,5.25 4,5.25L8.25,5.25ZM17.25,6.75L6.75,6.75L6.75,18C6.75,18.69 7.31,19.25 8,19.25L16,19.25C16.69,19.25 17.25,18.69 17.25,18L17.25,6.75ZM9.75,5.25L14.25,5.25L14.25,5C14.25,4.31 13.69,3.75 13,3.75L11,3.75C10.31,3.75 9.75,4.31 9.75,5L9.75,5.25ZM9.25,10C9.25,9.586 9.586,9.25 10,9.25C10.414,9.25 10.75,9.586 10.75,10L10.75,16C10.75,16.414 10.414,16.75 10,16.75C9.586,16.75 9.25,16.414 9.25,16L9.25,10ZM13.25,10C13.25,9.586 13.586,9.25 14,9.25C14.414,9.25 14.75,9.586 14.75,10L14.75,16C14.75,16.414 14.414,16.75 14,16.75C13.586,16.75 13.25,16.414 13.25,16L13.25,10Z"/>
    </g>
</svg>
