<?xml version="1.0" encoding="UTF-8" standalone="no"?>
<!DOCTYPE svg PUBLIC "-//W3C//DTD SVG 1.1//EN" "http://www.w3.org/Graphics/SVG/1.1/DTD/svg11.dtd">
<svg width="100%" height="100%" viewBox="0 0 800 800" version="1.1" xmlns="http://www.w3.org/2000/svg" xmlns:xlink="http://www.w3.org/1999/xlink" xml:space="preserve" xmlns:serif="http://www.serif.com/" style="fill-rule:evenodd;clip-rule:evenodd;stroke-linejoin:round;stroke-miterlimit:2;">
    <g transform="matrix(33.3333,0,0,33.3333,0,0)">
        <path d="M15.548,14.94C14.702,15.958 13.427,16.607 12,16.607C9.456,16.607 7.393,14.544 7.393,12C7.393,9.456 9.456,7.393 12,7.393C14.544,7.393 16.607,9.455 16.607,12L16.607,13.286C16.607,14.292 17.423,15.107 18.429,15.107C19.075,15.107 19.643,14.77 19.966,14.263L19.966,14.263C20.146,13.98 20.25,13.645 20.25,13.286L20.25,12C20.25,7.444 16.556,3.75 12,3.75C7.444,3.75 3.75,7.444 3.75,12C3.75,16.556 7.444,20.25 12,20.25C13.753,20.25 15.378,19.704 16.714,18.772C17.053,18.535 17.521,18.618 17.758,18.958C17.995,19.297 17.911,19.765 17.572,20.002C15.993,21.104 14.072,21.75 12,21.75C6.615,21.75 2.25,17.385 2.25,12C2.25,6.615 6.615,2.25 12,2.25C17.385,2.25 21.75,6.615 21.75,12L21.75,13.286C21.75,13.942 21.56,14.554 21.231,15.069C20.642,15.994 19.607,16.607 18.429,16.607C17.196,16.607 16.121,15.936 15.548,14.94ZM15.107,12C15.107,10.284 13.716,8.893 12,8.893C10.284,8.893 8.893,10.284 8.893,12C8.893,13.716 10.284,15.107 12,15.107C13.716,15.107 15.107,13.716 15.107,12Z"/>
    </g>
</svg>
