<?xml version="1.0" encoding="UTF-8" standalone="no"?>
<!DOCTYPE svg PUBLIC "-//W3C//DTD SVG 1.1//EN" "http://www.w3.org/Graphics/SVG/1.1/DTD/svg11.dtd">
<svg width="100%" height="100%" viewBox="0 0 800 800" version="1.1" xmlns="http://www.w3.org/2000/svg" xmlns:xlink="http://www.w3.org/1999/xlink" xml:space="preserve" xmlns:serif="http://www.serif.com/" style="fill-rule:evenodd;clip-rule:evenodd;stroke-linejoin:round;stroke-miterlimit:2;">
    <g transform="matrix(33.3333,0,0,33.3333,0,0)">
        <path d="M16,14.25C18.623,14.25 20.75,16.377 20.75,19L20.75,21C20.75,21.414 20.414,21.75 20,21.75L4,21.75C3.586,21.75 3.25,21.414 3.25,21L3.25,19C3.25,16.377 5.377,14.25 8,14.25L16,14.25ZM16,15.75L8,15.75C6.205,15.75 4.75,17.205 4.75,19L4.75,20.25L19.25,20.25L19.25,19C19.25,17.205 17.795,15.75 16,15.75ZM12,11.75C9.377,11.75 7.25,9.623 7.25,7C7.25,4.377 9.377,2.25 12,2.25C14.623,2.25 16.75,4.377 16.75,7C16.75,9.623 14.623,11.75 12,11.75ZM12,10.25C13.795,10.25 15.25,8.795 15.25,7C15.25,5.205 13.795,3.75 12,3.75C10.205,3.75 8.75,5.205 8.75,7C8.75,8.795 10.205,10.25 12,10.25Z"/>
    </g>
</svg>
