<?xml version="1.0" encoding="UTF-8" standalone="no"?>
<!DOCTYPE svg PUBLIC "-//W3C//DTD SVG 1.1//EN" "http://www.w3.org/Graphics/SVG/1.1/DTD/svg11.dtd">
<svg width="100%" height="100%" viewBox="0 0 800 800" version="1.1" xmlns="http://www.w3.org/2000/svg" xmlns:xlink="http://www.w3.org/1999/xlink" xml:space="preserve" xmlns:serif="http://www.serif.com/" style="fill-rule:evenodd;clip-rule:evenodd;stroke-linejoin:round;stroke-miterlimit:2;">
    <g transform="matrix(33.3333,0,0,-33.3333,0,799.999)">
        <path d="M21.75,12C21.75,17.385 17.385,21.75 12,21.75C6.615,21.75 2.25,17.385 2.25,12C2.25,6.615 6.615,2.25 12,2.25C17.385,2.25 21.75,6.615 21.75,12ZM20.25,12C20.25,7.444 16.556,3.75 12,3.75C7.444,3.75 3.75,7.444 3.75,12C3.75,16.556 7.444,20.25 12,20.25C16.556,20.25 20.25,16.556 20.25,12ZM11.999,7.784C11.584,7.784 11.248,7.448 11.248,7.033C11.248,6.618 11.584,6.282 11.999,6.282C12.414,6.282 12.75,6.618 12.75,7.033C12.75,7.448 12.414,7.784 11.999,7.784ZM12.75,17C12.75,17.414 12.414,17.75 12,17.75C11.586,17.75 11.25,17.414 11.25,17L11.25,10C11.25,9.586 11.586,9.25 12,9.25C12.414,9.25 12.75,9.586 12.75,10L12.75,17Z"/>
    </g>
</svg>
